<?xml version="1.0" encoding="UTF-8" standalone="no"?>
<!-- Created with Inkscape (http://www.inkscape.org/) -->

<svg
   xmlns:dc="http://purl.org/dc/elements/1.1/"
   xmlns:cc="http://creativecommons.org/ns#"
   xmlns:rdf="http://www.w3.org/1999/02/22-rdf-syntax-ns#"
   xmlns:svg="http://www.w3.org/2000/svg"
   xmlns="http://www.w3.org/2000/svg"
   xmlns:sodipodi="http://sodipodi.sourceforge.net/DTD/sodipodi-0.dtd"
   xmlns:inkscape="http://www.inkscape.org/namespaces/inkscape"
   version="1.1"
   id="svg38"
   width="266.66666"
   height="258.66666"
   viewBox="0 0 266.66666 258.66666"
   sodipodi:docname="colд.svg"
   inkscape:version="0.92.1 r15371">
  <metadata
     id="metadata44">
    <rdf:RDF>
      <cc:Work
         rdf:about="">
        <dc:format>image/svg+xml</dc:format>
        <dc:type
           rdf:resource="http://purl.org/dc/dcmitype/StillImage" />
        <dc:title></dc:title>
      </cc:Work>
    </rdf:RDF>
  </metadata>
  <defs
     id="defs42" />
  <sodipodi:namedview
     pagecolor="#ffffff"
     bordercolor="#666666"
     borderopacity="1"
     objecttolerance="10"
     gridtolerance="10"
     guidetolerance="10"
     inkscape:pageopacity="0"
     inkscape:pageshadow="2"
     inkscape:window-width="1600"
     inkscape:window-height="838"
     id="namedview40"
     showgrid="false"
     inkscape:zoom="0.91237117"
     inkscape:cx="133.33333"
     inkscape:cy="129.33333"
     inkscape:window-x="-8"
     inkscape:window-y="-8"
     inkscape:window-maximized="1"
     inkscape:current-layer="svg38" />
  <g
     id="g48"
     transform="translate(1.0960433,1.0960452)">
    <path
       style="fill:#e6e8e9;stroke-width:1.33333325"
       d="M 64.087042,224.88977 C 21.942693,201.90182 1.7603197,190.19161 0.87821184,188.21473 -1.6542901,182.53918 1.7078538,178.93269 15.570564,172.45461 c 14.185893,-6.62911 13.364802,-6.64448 25.6241,0.47976 l 5.861332,3.4062 -9.800709,4.5396 -9.800708,4.5396 46.606042,25.44285 c 25.633323,13.99357 48.495179,26.35623 50.804109,27.47256 l 4.19807,2.02971 50.75872,-27.18244 c 27.91729,-14.95035 50.77817,-27.54752 50.80193,-27.99372 0.0237,-0.4462 -3.84066,-2.5462 -8.58762,-4.66667 -4.74694,-2.12046 -8.64473,-4.1554 -8.66173,-4.52206 -0.0169,-0.36667 3.93576,-2.71786 8.78391,-5.22487 l 8.81482,-4.5582 12.54538,6.23189 c 13.57502,6.74339 16.76281,10.31095 14.1936,15.88451 -0.96694,2.09763 -20.18302,13.12664 -63.88515,36.66666 -34.37622,18.51667 -63.70023,33.66531 -65.16445,33.66366 -1.46422,-0.001 -30.523042,-15.19991 -64.575168,-33.77388 z M 65.487476,169.0639 C 29.303183,149.34424 2.8251287,134.11309 1.6738282,132.35599 -2.3329787,126.24083 0.17517814,123.26978 16.07688,115.29477 l 14.691821,-7.36822 8.806863,4.92508 8.806863,4.92507 -10.191213,5.12779 c -5.605168,2.82028 -10.191215,5.37212 -10.191215,5.67075 0,0.29863 22.684648,12.9005 50.410327,28.00414 l 50.410324,27.46118 49.92301,-26.88088 c 27.45765,-14.7845 50.44779,-27.34842 51.0892,-27.91983 0.64141,-0.57141 -3.19724,-3.23633 -8.53036,-5.92204 l -9.69656,-4.88311 7.86369,-4.51032 c 4.32503,-2.48067 8.6246,-4.52848 9.55459,-4.55068 3.14684,-0.0751 27.96116,13.12972 28.80488,15.32841 1.52052,3.96241 0.87687,6.79777 -2.16244,9.52579 -3.23476,2.90347 -121.82002,66.88359 -125.88237,67.91713 -1.51715,0.38599 -26.01406,-12.21783 -64.296814,-33.08113 z m -0.0671,-60.17414 C 23.276026,85.901827 3.093653,74.191609 2.2115451,72.214731 -0.78021245,65.50995 0.91767608,64.421521 65.763138,31.475066 99.835344,14.16378 129.23494,0 131.09557,0 c 3.4748,0 122.1519,59.635686 126.49022,63.561808 3.0639,2.772782 3.09852,7.75387 0.0749,10.777459 -3.49667,3.49667 -124.67962,68.327873 -127.7124,68.324383 -1.43825,-10e-4 -30.475828,-15.19991 -64.527954,-33.77389 z M 181.59544,96.999997 c 27.68201,-14.849999 50.33283,-27.299999 50.33515,-27.666665 0.003,-0.366667 -22.61088,-12.150791 -50.25155,-26.186941 L 131.42328,17.626116 80.378305,43.13833 C 52.303571,57.170047 29.353419,68.95417 29.377969,69.32527 c 0.05943,0.898382 98.920341,54.6042 100.587611,54.64384 0.7144,0.017 23.94783,-12.11911 51.62986,-26.969113 z"
       id="path62"
       inkscape:connector-curvature="0" />
    <path
       style="fill:#dee0e2;stroke-width:1.33333325"
       d="M 65.333332,225.40531 C 28.523766,205.28238 3.6580202,190.89734 2.1017607,188.82532 c -4.3794342,-5.83083 -1.52064723,-9.27178 13.5538883,-16.314 l 13.011017,-6.07824 8.331553,4.45013 c 4.582355,2.44756 8.332355,4.83461 8.333333,5.30455 9.79e-4,0.46993 -3.89822,2.55344 -8.664886,4.63002 -4.766667,2.07659 -8.662824,4.0921 -8.658128,4.47891 0.0073,0.60685 99.664482,55.36997 100.761452,55.36997 1.15915,0 101.85715,-54.78105 101.87528,-55.4215 0.0118,-0.41516 -3.57861,-2.47548 -7.97861,-4.5785 -4.4,-2.10301 -8,-4.31893 -8,-4.92428 0,-0.60533 3.77667,-2.96297 8.3926,-5.2392 l 8.3926,-4.13857 12.31904,6.187 c 14.28983,7.17677 17.01505,10.64583 12.794,16.28599 -2.93715,3.92461 -123.63204,69.72838 -127.89824,69.73109 C 127.2,258.56962 98.699998,243.6461 65.333332,225.40531 Z M 115.55146,196.00926 C 58.667461,165.89616 3.1041074,134.55594 1.41265,131.62988 c -3.0768,-5.32257 0.6319577,-9.29098 15.793898,-16.89959 l 13.138693,-6.59331 9.049153,4.80512 9.049151,4.80512 -10.850225,5.45972 -10.850226,5.45972 L 76.887119,156 c 27.579211,15.03333 50.917991,27.33333 51.863941,27.33333 0.94595,0 24.56796,-12.3 52.49336,-27.33333 l 50.77344,-27.33334 -9.35429,-4.63059 c -5.14486,-2.54683 -9.18403,-5.14138 -8.97594,-5.76567 0.2081,-0.62429 3.85958,-3.00305 8.1144,-5.28613 l 7.73604,-4.15106 12.51022,6.21444 c 14.54713,7.22627 18.26348,11.283 15.20572,16.59845 -1.35548,2.35631 -19.96918,13.07988 -63.25401,36.44142 -33.73334,18.20642 -62.43518,33.39219 -63.78187,33.74617 -1.38296,0.36349 -7.76574,-2.17124 -14.66667,-5.82443 z M 66.666665,109.40532 C 29.857099,89.282384 4.9913535,74.897339 3.435094,72.825321 -1.8977414,65.725129 -1.2350859,65.290229 66.62245,31.355445 101.10732,14.10995 130.37472,0.01071189 131.66111,0.0238042 132.9475,0.03689651 161.6,14.060566 195.33333,31.187517 c 64.93521,32.968639 67.13038,34.385911 63.56708,41.04098 -1.86088,3.475514 -124.70599,70.473843 -129.06397,70.390023 -1.37671,-0.0265 -29.80311,-14.97242 -63.169775,-33.2132 z M 192.39209,91.346998 c 21.78434,-11.725817 39.6079,-21.649805 39.6079,-22.053308 0,-0.403504 -22.60232,-12.207493 -50.22737,-26.231087 L 131.54524,17.565158 80.439287,43.107851 C 52.331012,57.156332 29.338295,68.95417 29.344359,69.32527 c 0.006,0.3711 22.656065,13.029281 50.333332,28.12929 L 130,124.90912 l 11.39209,-6.12123 c 6.26564,-3.36667 29.21564,-15.71508 51,-27.440892 z"
       id="path60"
       inkscape:connector-curvature="0" />
    <path
       style="fill:#ccd0d3;stroke-width:1.33333325"
       d="M 65.333332,225.32001 C 30.490134,206.29267 3.6112703,190.79652 2.1872406,188.91512 -2.1211038,183.22304 1.1725596,179.33798 16.069229,172.54054 l 12.735896,-5.81146 8.25333,4.30213 c 4.539332,2.36616 8.258179,4.66211 8.264104,5.10209 0.0059,0.43999 -3.889227,2.4575 -8.655893,4.48336 -4.766667,2.02587 -8.666667,4.10659 -8.666667,4.62384 0,1.20544 99.979291,55.52969 101.436151,55.11585 2.73394,-0.77662 101.23051,-54.35386 101.23051,-55.06435 0,-0.44092 -3.6,-2.52232 -8,-4.62534 -4.4,-2.10301 -8,-4.17484 -8,-4.60405 0,-0.42923 3.63964,-2.78132 8.08808,-5.22687 l 8.08808,-4.44644 12.59225,6.08784 c 14.37452,6.94948 17.35955,10.75514 12.96423,16.52824 -2.737,3.59496 -124.4902,69.71916 -128.0657,69.55252 -1.28348,-0.0598 -29.633602,-15.01687 -63.000268,-33.23789 z M 63.999998,168.02208 C -1.0323905,132.52073 -2.565801,131.44783 1.9271261,124.59076 c 1.1918226,-1.81895 7.9302066,-6.17246 15.2017659,-9.8215 l 13.061037,-6.55434 7.236435,3.95727 c 3.98004,2.1765 7.762307,4.48315 8.405038,5.12588 0.669246,0.66924 -3.214703,3.37409 -9.089302,6.32994 l -10.257903,5.16133 50.765969,27.60534 C 105.17145,171.5776 128.38247,184 128.83021,184 c 0.44773,0 23.86285,-12.44495 52.03357,-27.65546 l 51.21952,-27.65544 -9.37499,-4.63587 c -5.15624,-2.54973 -9.37498,-5.11038 -9.37498,-5.69033 0,-0.57996 3.77666,-2.91683 8.3926,-5.19304 l 8.3926,-4.13858 12.24132,6.14796 c 6.73273,3.38138 13.20412,7.61737 14.38086,9.41332 4.53583,6.92255 3.11604,7.90223 -63.09818,43.53876 -39.71604,21.37518 -62.98831,33.16761 -65.33334,33.10542 -2.10553,-0.0558 -29.241299,-14.07101 -64.309192,-33.21466 z m 2.020651,-59.13086 C 3.0572809,74.429871 0.32180911,72.588319 2.5181139,66.140562 3.2208655,64.077473 20.067354,54.957344 66.070504,31.735409 100.49839,14.35655 129.78133,0.10655056 131.14369,0.06874229 132.50606,0.03093403 161.49798,14.16378 195.57018,31.475066 c 66.72825,33.903055 67.53147,34.435759 62.32805,41.337245 -2.87241,3.809783 -124.45179,69.924769 -128.25571,69.745579 -1.27005,-0.0598 -29.899896,-15.20983 -63.621871,-33.66667 z M 189,93.291712 c 23.64999,-12.757666 42.99999,-23.609734 42.99999,-24.115706 0,-0.505973 -22.65,-12.395015 -50.33333,-26.420095 L 131.33333,17.255768 80.363147,42.961216 C 52.329545,57.099213 29.379546,68.993198 29.363149,69.392294 29.34675,69.79139 51.983332,82.485654 79.666665,97.601768 L 130,125.08561 l 8,-4.29907 c 4.4,-2.36449 27.35,-14.73716 51,-27.494828 z"
       id="path58"
       inkscape:connector-curvature="0" />
    <path
       style="fill:#bcc1c5;stroke-width:1.33333325"
       d="M 66.273745,225.44347 C 32.690973,207.17475 4.3409732,191.50293 3.2737462,190.61721 1.1987993,188.89516 0.7047698,183.05353 2.4074525,180.37376 c 0.5683068,-0.89443 6.7091189,-4.27984 13.6462495,-7.52312 l 12.612964,-5.8969 5.333333,2.71584 c 12.737776,6.48632 12.693822,6.22116 1.862817,11.23798 l -9.66205,4.47537 50.547773,27.53076 c 27.801271,15.1419 51.185411,27.53074 51.964741,27.53074 1.73628,0 99.25009,-52.20829 101.71766,-54.45901 1.41719,-1.29264 0.0401,-2.36037 -7,-5.42736 -4.82036,-2.09997 -8.75429,-4.13461 -8.74209,-4.52142 0.012,-0.38683 3.63322,-2.64878 8.0467,-5.02656 l 8.02452,-4.32326 12.28663,6.15696 c 6.75764,3.38634 12.72744,6.8318 13.26621,7.65659 1.63724,2.50643 1.13574,8.41073 -0.85473,10.06268 -2.88623,2.39535 -125.18272,68.1041 -126.74697,68.09994 -0.75783,-0.003 -28.854694,-14.9508 -62.437465,-33.21952 z M 64.680274,167.9929 C 31.021195,149.65568 2.9921979,133.90568 2.3936151,132.99291 c -0.5985826,-0.91277 -0.9320209,-3.45958 -0.7409737,-5.65958 0.313796,-3.61351 1.6356567,-4.67144 13.6806916,-10.94908 7.333333,-3.822 14.160297,-6.972 15.17103,-7 1.010735,-0.028 5.111616,1.82223 9.113072,4.11163 l 7.275373,4.16254 -9.779737,5.2969 c -5.378856,2.9133 -9.96174,5.47215 -10.184185,5.68635 -0.222445,0.21419 22.48115,12.82933 50.452435,28.03363 47.532069,25.83694 51.088809,27.53971 54.404449,26.04584 5.30355,-2.38953 98.02898,-52.29866 99.38042,-53.49117 0.64142,-0.56598 -3.22036,-3.23809 -8.58172,-5.93803 l -9.74792,-4.90897 7.91506,-4.50814 c 4.35328,-2.47947 8.21969,-4.51564 8.59204,-4.52482 0.37234,-0.009 6.67234,3.13332 14,6.98332 l 13.32301,7 v 5.26465 5.26464 l -62.54058,33.73536 c -34.39734,18.55444 -63.82465,33.73535 -65.39404,33.73535 -1.56939,0 -30.392685,-15.00319 -64.051766,-33.34043 z m 2.926804,-58.5121 C 34.024306,91.191546 5.6743065,75.502931 4.6070795,74.617211 2.5641765,72.921753 2.0251742,67.017398 3.6870836,64.539366 5.2281367,62.24154 128.64327,-0.00994337 131.47038,0.08454884 132.86167,0.13105069 161.9,14.402608 196,31.799119 l 61.99999,31.630022 0.39802,4.686913 c 0.27417,3.228681 -0.34808,5.326181 -2,6.741595 -3.01462,2.583008 -121.95065,66.446441 -125.28039,67.270081 -1.50038,0.37112 -26.13219,-12.2906 -63.510542,-32.64693 z M 198.3661,88.666664 C 217.55951,78.399998 233.26485,69.699998 233.26685,69.333332 233.26818,68.966665 210.33462,57.036084 182.3019,42.82093 L 131.33333,16.975196 79.441938,42.936686 C 41.968119,61.685 28.076053,69.236268 29.441939,70.11503 c 1.040267,0.669271 24.084705,13.333161 51.209863,28.141978 l 49.318468,26.925122 16.74937,-8.9244 c 9.21214,-4.90842 32.45305,-17.324399 51.64646,-27.591066 z"
       id="path56"
       inkscape:connector-curvature="0" />
    <path
       style="fill:#b7bdc1;stroke-width:1.33333325"
       d="M 67.540478,226.04058 C 34.654408,208.12933 6.3044096,192.52902 4.5404792,191.37326 1.3253785,189.26664 0.23688137,183.78792 2.3678605,180.43782 c 0.5465312,-0.8592 6.7680846,-4.24225 13.8256735,-7.5179 l 12.831981,-5.95574 8.340683,4.70038 8.340682,4.70037 -9.520108,4.09964 c -5.236058,2.2548 -9.505769,4.42268 -9.488246,4.81753 0.01752,0.39484 23.006953,13.17135 51.087621,28.39224 l 51.055763,27.67433 51.53238,-27.67433 c 28.34282,-15.22089 51.55338,-27.99557 51.57905,-28.38817 0.0256,-0.3926 -4.00061,-2.70963 -8.94728,-5.14893 l -8.99393,-4.43511 8.65249,-4.36777 8.65251,-4.36778 12.0081,6.01708 c 13.15982,6.5942 13.95775,7.31675 13.98768,12.66628 0.0156,2.78824 -1.16,4.3822 -4.97958,6.75163 -8.50727,5.27738 -122.48278,66.2669 -123.77816,66.23501 -0.67201,-0.0165 -28.12862,-14.68475 -61.014692,-32.596 z M 64.680002,167.8803 C 30.954006,149.49649 2.8976954,133.75277 2.3326458,132.89426 c -0.5650496,-0.85851 -0.8710516,-3.36093 -0.6800044,-5.56093 0.313796,-3.61351 1.6356567,-4.67144 13.6806916,-10.94908 7.333333,-3.822 13.976784,-6.972 14.763224,-7 0.78644,-0.028 4.930229,1.84494 9.208419,4.16211 l 7.778528,4.21303 -10.375088,5.2203 c -5.706298,2.87117 -9.850087,5.71521 -9.208419,6.32009 1.802737,1.6994 97.669173,53.5744 100.233793,54.23826 1.88383,0.48762 99.72183,-50.83895 103.4324,-54.26146 0.64142,-0.59161 -3.20082,-3.27486 -8.5383,-5.96277 l -9.70451,-4.88712 8.17825,-4.60883 8.17824,-4.60883 13.6934,7.06215 c 12.41788,6.40433 13.72575,7.43474 14.04075,11.06215 0.19104,2.2 -0.11227,4.69796 -0.67389,5.55103 -1.62404,2.46653 -124.71578,68.44161 -127.67347,68.43081 C 127.2,201.30981 98.405999,186.26412 64.680002,167.8803 Z m 4.135822,-57.88135 C 35.897862,92.068796 7.5478622,76.470139 5.8158251,75.335265 2.0092955,72.84113 1.5774245,66.692556 4.9999999,63.720309 6.2833332,62.605833 35.038248,47.758099 68.899812,30.725346 111.35086,9.371984 131.26657,0.01070197 133.04381,0.57477567 138.19121,2.2084983 256.69354,62.969714 257.64625,64.463774 c 1.56982,2.461878 1.16949,8.419309 -0.66827,9.944513 -2.79369,2.318564 -125.51256,68.261083 -126.96591,68.224653 -0.73997,-0.0185 -28.27828,-14.70384 -61.196246,-32.63399 z M 182.40496,97.333331 C 210.38529,82.299998 233.28203,69.699998 233.28661,69.333332 233.29061,68.966665 210.4025,57.0233 182.42286,42.792522 L 131.55079,16.918378 79.775395,42.778848 c -28.476467,14.22326 -51.760682,26.166624 -51.7427,26.54081 0.04499,0.936056 101.779395,56.059042 102.733115,55.664122 0.4212,-0.17442 23.65881,-12.61712 51.63915,-27.650449 z"
       id="path54"
       inkscape:connector-curvature="0" />
    <path
       style="fill:#a8aeb3;stroke-width:1.33333325"
       d="M 126.66666,257.60438 C 123.95474,256.68314 5.1002559,192.04814 2.9999999,190.35244 0.56813857,188.38901 0.96327376,182.07208 3.6666666,179.6946 6.4993193,177.20345 26.321117,168 28.853746,168 c 2.190256,0 15.099932,6.98377 15.127042,8.1833 0.01053,0.4675 -3.880789,2.5075 -8.647456,4.53336 -4.766666,2.02587 -8.663597,4.04338 -8.659846,4.48336 0.0089,1.04206 100.206314,55.46664 102.115874,55.46664 1.86022,0 103.17525,-54.4116 103.1955,-55.4215 0.008,-0.41516 -3.58487,-2.47548 -7.98487,-4.5785 -4.4,-2.10301 -8,-4.3037 -8,-4.89045 0,-0.58673 3.4464,-2.80949 7.65868,-4.93947 l 7.65868,-3.87268 10.67466,5.33144 c 5.87105,2.9323 11.72465,6.25838 13.00798,7.39128 2.70362,2.38674 3.09802,8.69995 0.66667,10.67155 -2.19909,1.78325 -120.74757,65.62098 -124.27308,66.92038 -1.4998,0.55279 -3.62692,0.69934 -4.72692,0.32567 z M 65.999998,168.51689 c -32.999999,-18 -61.0791124,-33.69928 -62.39803,-34.88728 -1.5451343,-1.39177 -2.2564655,-3.60691 -1.9999999,-6.22815 0.3624679,-3.70464 1.6403089,-4.70871 14.3015939,-11.23749 l 13.903563,-7.16935 8.76135,4.32041 8.761352,4.32042 -10.498249,5.28227 c -5.886929,2.96205 -9.985795,5.78277 -9.331581,6.42172 1.816558,1.77418 99.665473,54.95812 101.166663,54.98724 1.43194,0.0277 100.55257,-53.18107 102.49953,-55.02267 0.64142,-0.6067 -3.20854,-3.30618 -8.55546,-5.99884 l -9.72167,-4.89576 8.40745,-4.49203 8.40746,-4.49203 13.48134,6.95399 c 12.2096,6.298 13.51412,7.33132 13.82871,10.95399 0.19104,2.2 -0.10893,4.68008 -0.66667,5.51128 -1.60582,2.39329 -125.08302,68.49373 -127.85527,68.44413 -1.37065,-0.0245 -29.492082,-14.77185 -62.492082,-32.77185 z M 128,141.6022 C 125.29915,140.68178 6.4416181,76.041761 4.3333332,74.346762 1.9018048,72.391886 2.2964639,66.075104 4.9999999,63.676321 6.2833332,62.53765 35.287692,47.645469 69.454132,30.582586 L 131.57493,-0.44083803 192.78746,30.591371 c 33.66689,17.067716 62.26253,31.959897 63.54587,33.093735 2.70345,2.388534 3.09838,8.705641 0.66666,10.663813 -2.34025,1.884527 -120.30079,65.458241 -123.98327,66.819611 -1.6592,0.61339 -3.91672,0.80853 -5.01672,0.43367 z m 54.58541,-44.268869 c 27.88674,-15.033333 50.71324,-27.649087 50.72554,-28.035009 0.012,-0.385921 -22.87306,-12.332101 -50.85637,-26.547066 L 131.57584,16.905866 79.787921,42.772592 c -28.483357,14.2267 -51.783494,26.17288 -51.778082,26.547066 0.01672,1.156222 100.556571,55.772682 102.264611,55.553412 0.88429,-0.11353 24.42423,-12.50641 52.31096,-27.539739 z"
       id="path52"
       inkscape:connector-curvature="0" />
    <path
       style="fill:#98a0a6;stroke-width:1.33333325"
       d="M 65.340709,224.54817 C 32.711434,206.66562 4.9614345,191.13257 3.6740438,190.03028 c -3.00136271,-2.56986 -3.00507251,-7.72396 -0.00738,-10.24936 1.2833333,-1.08115 7.3899342,-4.23351 13.5702252,-7.00526 l 11.236893,-5.03953 7.763106,3.71043 c 4.269709,2.04073 7.763108,4.06658 7.763108,4.5019 0,0.43531 -3.9,2.4905 -8.666667,4.56708 -4.766666,2.07659 -8.666666,4.20298 -8.666666,4.72532 0,0.96336 100.300967,56.09247 102.053707,56.09247 1.62669,0 103.27962,-55.12816 103.27962,-56.01035 0,-0.45797 -3.6,-2.5533 -8,-4.65632 -4.4,-2.10301 -7.9979,-4.16333 -7.99533,-4.57849 0.003,-0.41516 3.25701,-2.50916 7.23212,-4.65332 l 7.22745,-3.89848 11.10122,5.04216 c 6.10566,2.77319 12.15121,5.97049 13.43454,7.10512 2.46452,2.17896 3.02211,6.49985 1.20776,9.35917 -1.98717,3.13167 -124.47243,68.29804 -128.1022,68.15479 -1.89139,-0.0747 -30.135569,-14.7669 -62.764844,-32.64944 z M 64.779874,167.5591 C 31.108806,149.1016 2.9704545,133.04286 2.2502029,131.87303 -0.83572269,126.86088 2.1794762,123.55195 16.540644,116.19047 l 13.934665,-7.14285 8.105301,4.45591 8.105302,4.45591 -10.188964,5.12665 c -8.442553,4.24793 -9.872554,5.41662 -8.342957,6.81836 2.572054,2.35706 98.758439,54.53999 100.531049,54.53999 0.79307,0 24.67786,-12.50836 53.07732,-27.79636 l 51.63538,-27.79636 -9.44299,-5.23731 c -5.19364,-2.88052 -9.21312,-5.46716 -8.93218,-5.74809 0.28093,-0.28094 3.75262,-2.2836 7.71488,-4.45037 l 7.20408,-3.93959 13.06313,6.8314 c 13.48637,7.05274 16.49919,10.54912 13.41253,15.56527 -1.73892,2.82591 -124.32495,69.29102 -127.75053,69.26524 C 127.2,201.12723 98.450942,186.01661 64.779874,167.5591 Z m 0.181234,-59.94967 C 1.2417261,72.68517 -0.19090728,71.701921 3.5481499,65.460296 4.248939,64.290465 33.089951,49.098041 67.639288,31.699353 125.11847,2.753429 130.77677,0.18235032 134.22813,1.4420048 c 8.69883,3.1748419 122.35348,62.0717672 123.53746,64.0182912 0.71156,1.16983 0.91883,3.62078 0.46059,5.446554 -0.69617,2.773772 -11.04835,8.836551 -62.96056,36.87303 -40.10953,21.66216 -63.39228,33.50582 -65.6965,33.41905 -1.96302,-0.0739 -31.036624,-15.1892 -64.608012,-33.5895 z M 182.14297,97.776528 c 28.15469,-15.156241 51.19036,-28.012019 51.19036,-28.568396 0,-1.324719 -99.76767,-51.874799 -102.38218,-51.874799 -2.28292,0 -102.912675,50.927051 -102.935967,52.094187 -0.01736,0.870077 100.050777,55.77808 101.794447,55.85523 0.62863,0.0278 24.17863,-12.34998 52.33334,-27.506222 z"
       id="path50"
       inkscape:connector-curvature="0" />
  </g>
</svg>
