<?xml version="1.0" encoding="UTF-8" standalone="no"?>
<!-- Created with Inkscape (http://www.inkscape.org/) -->

<svg
   xmlns:dc="http://purl.org/dc/elements/1.1/"
   xmlns:cc="http://creativecommons.org/ns#"
   xmlns:rdf="http://www.w3.org/1999/02/22-rdf-syntax-ns#"
   xmlns:svg="http://www.w3.org/2000/svg"
   xmlns="http://www.w3.org/2000/svg"
   xmlns:sodipodi="http://sodipodi.sourceforge.net/DTD/sodipodi-0.dtd"
   xmlns:inkscape="http://www.inkscape.org/namespaces/inkscape"
   version="1.1"
   id="svg28"
   width="266.66666"
   height="266.66666"
   viewBox="0 0 266.66666 266.66666"
   sodipodi:docname="favorite.svg"
   inkscape:version="0.92.1 r15371">
  <metadata
     id="metadata34">
    <rdf:RDF>
      <cc:Work
         rdf:about="">
        <dc:format>image/svg+xml</dc:format>
        <dc:type
           rdf:resource="http://purl.org/dc/dcmitype/StillImage" />
        <dc:title></dc:title>
      </cc:Work>
    </rdf:RDF>
  </metadata>
  <defs
     id="defs32" />
  <sodipodi:namedview
     pagecolor="#ffffff"
     bordercolor="#666666"
     borderopacity="1"
     objecttolerance="10"
     gridtolerance="10"
     guidetolerance="10"
     inkscape:pageopacity="0"
     inkscape:pageshadow="2"
     inkscape:window-width="1600"
     inkscape:window-height="838"
     id="namedview30"
     showgrid="false"
     inkscape:zoom="0.88500003"
     inkscape:cx="133.33333"
     inkscape:cy="133.33333"
     inkscape:window-x="-8"
     inkscape:window-y="-8"
     inkscape:window-maximized="1"
     inkscape:current-layer="svg28" />
  <path
     style="fill:#000000;stroke-width:1.33333325"
     d="m 51.231511,261.63246 c 1.61811,-10.20109 10.10182,-83.10225 10.10182,-86.80569 0,-3.13921 -5.69027,-10.23428 -30.73944,-38.32833 L -0.14555905,102.02244 44.012551,93.192555 c 24.28696,-4.856436 44.64492,-9.361485 45.23993,-10.01122 0.595,-0.649736 10.6066,-19.326674 22.247999,-41.504308 11.6414,-22.177634 21.46618,-40.3090361 21.83285,-40.2920038 0.36667,0.017032 10.22048,18.3725308 21.89736,40.7899988 14.22457,27.308586 22.14456,41.140557 24,41.915177 1.52312,0.63588 21.5193,4.863835 44.43597,9.395455 22.91667,4.531619 41.66667,8.612486 41.66667,9.068596 0,0.4561 -13.76232,16.22187 -30.58292,35.03504 l -30.58294,34.20575 5.22123,43.76914 c 2.87167,24.07303 5.41593,45.32284 5.65392,47.2218 0.41173,3.28535 -1.53164,2.49385 -40.10356,-16.33333 -22.29494,-10.8823 -41.17344,-19.78599 -41.9522,-19.78599 -0.77877,0 -19.66954,8.98461 -41.979489,19.9658 l -40.56355,19.96581 z M 173.84916,191.48132 c -3.4703,-28.92423 -2.09243,-32.80635 20.51442,-57.79906 6.46805,-7.15067 9.30187,-11.1839 8.11945,-11.55599 -0.99901,-0.31438 -10.35667,-2.38348 -20.79483,-4.59799 -25.50839,-5.41175 -29.3282,-8.57537 -42.4951,-35.194949 -2.81116,-5.683333 -5.4376,-10.333333 -5.83653,-10.333333 -0.39893,0 -3.668,5.55 -7.26459,12.333333 -14.00197,26.408369 -16.39374,28.238749 -44.091979,33.742839 -10.26667,2.04016 -18.90244,3.89339 -19.1906,4.11831 -0.28816,0.22491 3.01184,4.3991 7.33334,9.27598 18.303,20.65523 20.6471,24.04375 22.68951,32.79879 1.74186,7.46668 1.72019,10.34693 -0.19699,26.18951 -1.18475,9.7901 -1.82569,18.12858 -1.42432,18.52995 0.40138,0.40138 7.19311,-2.35333 15.092749,-6.12158 7.89964,-3.76825 17.19219,-7.45279 20.65012,-8.18788 8.70883,-1.85131 18.51659,0.66589 35.04619,8.99474 7.33333,3.6951 13.49224,6.57116 13.68646,6.39127 0.19422,-0.17989 -0.63257,-8.54267 -1.8373,-18.58394 z"
     id="path38"
     inkscape:connector-curvature="0" />
</svg>
