<?xml version="1.0" encoding="UTF-8" standalone="no"?>
<!-- Created with Inkscape (http://www.inkscape.org/) -->

<svg
   xmlns:dc="http://purl.org/dc/elements/1.1/"
   xmlns:cc="http://creativecommons.org/ns#"
   xmlns:rdf="http://www.w3.org/1999/02/22-rdf-syntax-ns#"
   xmlns:svg="http://www.w3.org/2000/svg"
   xmlns="http://www.w3.org/2000/svg"
   xmlns:sodipodi="http://sodipodi.sourceforge.net/DTD/sodipodi-0.dtd"
   xmlns:inkscape="http://www.inkscape.org/namespaces/inkscape"
   version="1.1"
   id="svg36"
   width="266.66666"
   height="218.66667"
   viewBox="0 0 266.66666 218.66667"
   sodipodi:docname="file.svg"
   inkscape:version="0.92.1 r15371">
  <metadata
     id="metadata42">
    <rdf:RDF>
      <cc:Work
         rdf:about="">
        <dc:format>image/svg+xml</dc:format>
        <dc:type
           rdf:resource="http://purl.org/dc/dcmitype/StillImage" />
        <dc:title></dc:title>
      </cc:Work>
    </rdf:RDF>
  </metadata>
  <defs
     id="defs40" />
  <sodipodi:namedview
     pagecolor="#ffffff"
     bordercolor="#666666"
     borderopacity="1"
     objecttolerance="10"
     gridtolerance="10"
     guidetolerance="10"
     inkscape:pageopacity="0"
     inkscape:pageshadow="2"
     inkscape:window-width="1600"
     inkscape:window-height="838"
     id="namedview38"
     showgrid="false"
     inkscape:zoom="1.0792683"
     inkscape:cx="133.33333"
     inkscape:cy="109.33334"
     inkscape:window-x="-8"
     inkscape:window-y="-8"
     inkscape:window-maximized="1"
     inkscape:current-layer="svg36" />
  <g
     id="g46"
     transform="translate(1.8531046,1.8531071)">
    <path
       style="fill:#e8eaeb;stroke-width:1.33333337"
       d="M 23.503327,216.70911 C 16.33121,214.15255 9.3860552,208.22982 4.6666665,200.64544 L 0.66666665,194.21718 0.27254941,159.35954 -0.12156784,124.5019 3.8679944,116.91762 7.8575567,109.33333 3.9287783,101.86461 0,94.39588 V 60.793066 C 0,27.387994 0.02014329,27.14983 3.4229986,20.321188 7.3001029,12.540854 13.95309,6.1358504 21.912831,2.5205484 26.839791,0.28273094 31.478993,0.05589912 72.864604,0.02928267 L 118.39588,0 125.8646,3.9287785 133.33333,7.8575571 140.80206,3.9287785 148.27078,0 193.80206,0.02928267 c 41.1844,0.02648705 46.04044,0.26139093 50.8646,2.46050493 7.53284,3.4338784 13.46612,8.7941264 17.69281,15.9840754 l 3.64052,6.192804 0.412,34.715059 0.412,34.715059 -4.00744,7.618275 -4.00745,7.61827 4.00745,7.61828 4.00744,7.61827 -0.412,34.82383 -0.412,34.82381 -4.02857,6.51187 c -4.70123,7.59915 -13.29077,14.58583 -20.33844,16.54313 -2.95888,0.82176 -22.83164,1.38228 -49.16425,1.38671 l -44.19795,0.007 -7.46872,-3.92877 -7.46873,-3.92879 -7.46873,3.92879 -7.46872,3.92877 -44.86461,-0.0585 c -34.64884,-0.0452 -46.040307,-0.47761 -50.027943,-1.89904 z m 93.410733,-26.27485 c 3.04442,-2.8601 3.08594,-3.29392 3.08594,-32.2474 0,-28.29754 -0.1038,-29.45881 -2.89909,-32.43426 l -2.89908,-3.08593 H 72.853514 c -40.618204,0 -41.402801,0.0512 -44.434247,2.89908 -3.044418,2.86009 -3.085934,3.29392 -3.085934,32.2474 0,28.29753 0.1038,29.4588 2.899085,32.43425 l 2.899085,3.08594 h 41.348313 c 40.618204,0 41.402804,-0.0512 44.434244,-2.89908 z m 121.33333,0 c 3.04442,-2.8601 3.08594,-3.29392 3.08594,-32.2474 0,-28.29754 -0.1038,-29.45881 -2.89908,-32.43426 l -2.8991,-3.08593 h -41.3483 c -40.61821,0 -41.4028,0.0512 -44.43425,2.89908 -3.04442,2.86009 -3.08594,3.29392 -3.08594,32.2474 0,28.29753 0.10374,29.4588 2.89908,32.43425 l 2.8991,3.08594 h 41.3483 c 40.61821,0 41.4028,-0.0512 44.43425,-2.89908 z M 116.91406,93.100916 C 119.95848,90.240832 120,89.807003 120,60.853517 120,32.55599 119.8962,31.394715 117.10091,28.419268 l -2.89908,-3.085934 H 72.853514 c -40.618204,0 -41.402801,0.05119 -44.434247,2.899085 -3.044418,2.860084 -3.085934,3.293913 -3.085934,32.247399 0,28.297527 0.1038,29.458802 2.899085,32.434249 l 2.899085,3.085934 h 41.348313 c 40.618204,0 41.402804,-0.05119 44.434244,-2.899085 z m 121.33333,0 c 3.04442,-2.860084 3.08594,-3.293913 3.08594,-32.247399 0,-28.297527 -0.1038,-29.458802 -2.89908,-32.434249 l -2.8991,-3.085934 h -41.3483 c -40.61821,0 -41.4028,0.05119 -44.43425,2.899085 -3.04442,2.860084 -3.08594,3.293913 -3.08594,32.247399 0,28.297527 0.10374,29.458802 2.89908,32.434249 l 2.8991,3.085934 h 41.3483 c 40.61821,0 41.4028,-0.05119 44.43425,-2.899085 z"
       id="path60"
       inkscape:connector-curvature="0" />
    <path
       style="fill:#cdd0d3;stroke-width:1.33333337"
       d="M 20.107915,214.51011 C 11.153752,210.03566 5.7280797,203.9474 2.003527,194.1948 0.20538651,189.48644 -0.0721526,183.3823 0.26520873,155.9626 0.68048056,122.21058 0.73923382,121.81481 6.7421097,112.33334 c 1.6435754,-2.59601 1.6435754,-3.404 0,-6.00001 C 0.73923382,96.851857 0.68048056,96.456087 0.26520873,62.704064 -0.0721526,35.284369 0.20538651,29.180234 2.003527,24.47187 5.7280797,14.719267 11.153752,8.6310073 20.107915,4.156559 L 28.425926,0 H 72.666665 116.9074 l 8.21297,4.1040662 8.21296,4.1040662 8.21296,-4.1040662 L 149.75925,0 H 194 238.24074 l 8.318,4.156559 c 8.95417,4.4744483 14.37984,10.562708 18.10439,20.315311 1.79814,4.708364 2.07568,10.812499 1.73832,38.232194 -0.41527,33.752023 -0.47403,34.147793 -6.4769,43.629266 -1.64357,2.59601 -1.64357,3.404 0,6.00001 6.00287,9.48147 6.06163,9.87724 6.4769,43.62926 0.33736,27.4197 0.0599,33.52384 -1.73832,38.2322 -3.72455,9.7526 -9.15022,15.84086 -18.10439,20.31531 l -8.318,4.15656 H 194 149.75925 l -8.21296,-4.10407 -8.21296,-4.10406 -8.21296,4.10406 -8.21297,4.10407 H 72.666665 28.425926 Z m 93.066965,-21.32133 c 7.36487,-2.5674 8.15845,-5.99023 8.15845,-35.18878 0,-28.45457 -0.75717,-32.09442 -7.29608,-35.07375 -2.44928,-1.11597 -14.87499,-1.59291 -41.499536,-1.59291 -43.074293,0 -44.667015,0.30363 -47.250288,9.00776 -0.935296,3.15141 -1.322912,14.40624 -1.051196,30.5225 0.393007,23.31024 0.66232,25.7877 3.097103,28.49071 1.466666,1.62824 3.866666,3.45159 5.333333,4.05188 4.176292,1.70933 75.533954,1.51663 80.508214,-0.21741 z m 125.13006,-2.88255 3.69505,-3.69376 0.43044,-25.63957 c 0.2719,-16.19583 -0.11533,-27.47834 -1.0512,-30.6318 -2.5843,-8.70761 -4.16305,-9.00776 -47.37923,-9.00776 -41.38856,0 -43.92883,0.39372 -47.07375,7.29607 -2.22836,4.89071 -2.19383,53.92626 0.0415,58.83213 3.07344,6.74546 6.22082,7.18841 48.6706,6.84956 L 234.60993,194 l 3.69505,-3.69377 z M 114.4733,95.433329 c 6.1726,-3.191978 6.86003,-6.688794 6.86003,-34.895612 0,-29.910621 -0.73971,-32.80435 -9.00777,-35.238231 C 109.0462,24.334132 94.419359,23.97346 69.694908,24.24829 l -37.638422,0.418377 -3.694911,3.693768 -3.694909,3.693767 -0.430436,25.639567 c -0.481465,28.67929 0.468684,34.487827 6.145457,37.568935 5.245273,2.846908 78.628313,2.995805 84.091613,0.170625 z m 121.54171,-0.10776 c 5.97688,-3.090761 6.904,-8.529077 6.41542,-37.631799 l -0.43044,-25.639568 -3.6949,-3.693767 -3.69491,-3.693768 -37.63842,-0.418377 c -24.72446,-0.27483 -39.3513,0.08584 -42.63067,1.051196 -8.30065,2.44348 -9.01483,5.283612 -8.96051,35.634302 0.0504,28.19086 0.6275,31.13646 6.76618,34.538871 4.96069,2.749497 78.51634,2.620493 83.86825,-0.14709 z"
       id="path58"
       inkscape:connector-curvature="0" />
    <path
       style="fill:#bdc2c5;stroke-width:1.33333337"
       d="M 23.419502,215.97267 C 14.551886,212.51044 5.960334,203.83039 2.6539157,194.99319 0.29577739,188.69051 8.2872821e-4,184.59922 0.00743591,158.28332 0.01528051,127.03891 0.70716661,121.92628 5.9788651,114.158 l 3.2741032,-4.82467 -3.2741032,-4.82466 C 0.70716661,96.740392 0.01528051,91.627764 0.00743591,60.383352 -0.00123936,25.830428 1.1566983,20.654279 11.071998,10.923148 21.651319,0.54032818 24.690485,-0.00107199 72.347634,0.00743591 96.241342,0.01170149 116.06441,0.58829468 118.842,1.359817 c 2.66311,0.7397197 7.01311,2.8182915 9.66667,4.6190483 l 4.82466,3.2741034 4.82467,-3.2741034 c 2.65356,-1.8007568 7.00356,-3.8793286 9.66666,-4.6190483 2.77719,-0.77140824 22.58896,-1.34811613 46.45866,-1.35238109 48.7407,-0.00870881 51.52626,0.52340355 62.13997,11.87031909 9.17826,9.812312 10.24484,14.955967 10.23593,49.364247 -0.008,30.387427 -0.71669,35.523387 -5.97143,43.266668 l -3.2741,4.82466 3.2741,4.82467 c 5.25474,7.74328 5.96358,12.87924 5.97143,43.26667 0.009,34.40828 -1.05767,39.55193 -10.23593,49.36424 -10.61371,11.34692 -13.39927,11.87903 -62.13997,11.87032 -23.8697,-0.004 -43.68147,-0.58097 -46.45866,-1.35237 -2.6631,-0.73972 -7.0131,-2.8183 -9.66666,-4.61906 l -4.82467,-3.2741 -4.82466,3.2741 c -2.65356,1.80076 -7.00356,3.87934 -9.66667,4.61906 -2.80584,0.77936 -22.503901,1.32184 -46.842002,1.29001 -38.225151,-0.05 -42.591436,-0.28585 -48.580496,-2.6242 z M 114.79016,192.6028 c 2.19509,-1.13512 4.56529,-3.57417 5.26712,-5.42013 0.70183,-1.84595 1.27605,-15.58375 1.27605,-30.52845 0,-26.80142 -0.0439,-27.22323 -3.21789,-30.9132 L 114.89755,122 H 72.819146 c -41.99816,0 -42.084197,0.006 -45.115443,3.03406 -2.934308,2.93143 -3.050952,3.9643 -3.448401,30.53548 -0.446712,29.86466 0.219893,33.81373 6.262101,37.09761 5.357785,2.91189 78.625507,2.85596 84.272757,-0.0644 z m 121.01646,0.16387 c 6.18329,-3.19751 6.86047,-6.67101 6.85505,-35.16273 -0.004,-23.68751 -0.26044,-26.68957 -2.60306,-30.53159 -1.78788,-2.93219 -3.96928,-4.51414 -6.99502,-5.07278 -2.41832,-0.44648 -21.69966,-0.62904 -42.84745,-0.40568 L 151.76562,122 l -3.21614,3.74102 c -3.17172,3.68934 -3.21615,4.11641 -3.21615,30.9132 0,14.9447 0.57236,28.6776 1.27191,30.51754 2.63925,6.94178 5.43718,7.38356 47.12764,7.44152 30.70701,0.0427 39.13559,-0.32724 42.07374,-1.84661 z M 117.43589,93.435899 121.33333,89.538463 V 62.189365 c 0,-15.042004 -0.57422,-28.85942 -1.27605,-30.70537 C 117.40601,24.510631 114.17256,24 72.666665,24 c -41.388559,0 -43.92883,0.393723 -47.073752,7.296078 -2.262286,4.965176 -2.161708,54.835407 0.11968,59.344313 3.2018,6.32798 5.53715,6.652273 48.05663,6.673288 l 39.769237,0.01966 z m 117.74677,2.621384 c 6.55431,-2.491942 7.484,-6.872284 7.484,-35.261665 0,-17.320872 -0.53188,-27.170817 -1.59292,-29.49954 C 237.92882,24.393723 235.38855,24 194,24 c -41.5059,0 -44.73935,0.510631 -47.39062,7.483995 -0.70182,1.84595 -1.27605,15.663366 -1.27605,30.70537 v 27.349098 l 3.89744,3.897436 3.89743,3.897436 h 39.3491 c 21.82831,0 40.84352,-0.568182 42.70536,-1.276052 z"
       id="path56"
       inkscape:connector-curvature="0" />
    <path
       style="fill:#b7bdc1;stroke-width:1.33333337"
       d="m 24.820298,216.48106 c -4.568096,-1.40267 -8.616361,-4.1032 -13.556462,-9.04331 C 0.9900823,197.164 0,192.81846 0,158 0,127.96829 1.2064748,119.91102 6.7606378,112.85004 l 2.7662424,-3.51671 -2.7662424,-3.5167 C 1.2064748,98.755654 0,90.698383 0,60.666668 0,25.86113 0.99235366,21.5004 11.246377,11.246377 22.034971,0.4577817 24.535073,0 72.666665,0 115.47135,0 122.23976,0.80067867 129.81662,6.7606381 l 3.51671,2.7662424 3.51671,-2.7662424 C 144.4269,0.80067867 151.1953,0 194,0 c 48.13158,0 50.63169,0.4577817 61.42029,11.246377 10.25401,10.254023 11.24637,14.614753 11.24637,49.420291 0,30.031715 -1.20648,38.088986 -6.76064,45.149962 l -2.76624,3.5167 2.76624,3.51671 c 5.55416,7.06098 6.76064,15.11825 6.76064,45.14996 0,34.80554 -0.99236,39.16627 -11.24637,49.4203 -10.7886,10.78858 -13.28871,11.24637 -61.42029,11.24637 -42.8047,0 -49.5731,-0.80068 -57.14996,-6.76064 l -3.51671,-2.76624 -3.51671,2.76624 c -7.62857,6.00064 -14.26154,6.7668 -57.72529,6.66777 -32.239151,-0.0735 -42.119289,-0.51086 -47.271032,-2.09274 z m 93.296732,-26.22207 c 3.18399,-3.70344 3.2163,-4.02927 3.2163,-32.43591 v -28.69487 l -3.89744,-3.89744 -3.89743,-3.89743 H 72.666665 31.794871 l -3.897436,3.89743 -3.897436,3.89744 0.01965,27.76923 c 0.01387,19.59348 0.5123,28.74288 1.692942,31.07628 3.275096,6.47284 5.310019,6.7388 48.737768,6.3699 L 114.90073,194 Z m 120.84776,0.70675 c 2.94659,-2.94568 3.04704,-3.89059 3.44094,-32.3635 l 0.40573,-29.32923 -3.96983,-3.96984 -3.96984,-3.96983 H 194 153.1282 l -3.89743,3.89743 -3.89744,3.89744 v 28.47255 c 0,30.52576 0.49897,33.02472 7.14267,35.77248 1.57153,0.64998 20.99149,1.0569 43.15546,0.90427 39.97137,-0.27525 40.32273,-0.30211 43.33333,-3.31177 z m -121.5289,-97.529841 3.89744,-3.897436 V 60.843584 c 0,-28.411066 -0.0318,-28.731882 -3.21789,-32.435898 l -3.21789,-3.741019 H 72.819146 c -41.999089,0 -42.084131,0.0057 -45.115443,3.034269 -2.948984,2.946298 -3.048801,3.88462 -3.442773,32.363496 l -0.405736,29.329225 3.969839,3.969839 3.969838,3.969839 h 40.871794 40.871795 z m 121.40574,-0.0724 3.96983,-3.969839 -0.40573,-29.329226 c -0.39398,-28.478878 -0.49379,-29.4172 -3.44278,-32.363498 -3.0313,-3.028549 -3.11634,-3.034269 -45.11543,-3.034269 H 151.7691 l -3.21788,3.741019 c -3.18606,3.704016 -3.21789,4.024832 -3.21789,32.435898 v 28.694879 l 3.89744,3.897436 3.89743,3.897436 H 194 234.87179 l 3.96984,-3.969839 z"
       id="path54"
       inkscape:connector-curvature="0" />
    <path
       style="fill:#a7aeb3;stroke-width:1.33333337"
       d="M 26.427405,216.80668 C 14.54031,213.60592 4.0021795,202.53027 1.4293382,190.53352 0.6432022,186.8679 0,171.69364 0,156.81295 0,128.09888 1.0389997,121.23666 6.5606538,113.48222 l 2.8797584,-4.04425 -3.3091317,-5.05232 C 0.54709615,95.859829 -0.26159037,89.401543 0.22030095,57.179722 0.63897862,29.184703 0.85758899,26.945735 3.7445744,21.084766 5.4374237,17.648052 9.2536854,12.63975 12.225156,9.9552051 22.375855,0.78465792 22.777611,0.71527366 68.440274,0.24671243 112.67603,-0.20720682 119.88583,0.49384046 128.33333,6.0704332 l 5,3.3007363 5,-3.3007363 c 8.44707,-5.57631035 15.65784,-6.27756372 59.89305,-5.8246503 39.81096,0.40761452 41.30395,0.51792136 47.35552,3.4987917 3.43671,1.6928493 8.44501,5.5091111 11.12956,8.4805814 8.66509,9.591227 9.16605,11.868688 9.70005,44.09838 0.52472,31.670209 -0.47448,39.919481 -5.81528,48.009794 l -3.30074,5 3.30074,5.00001 c 5.3408,8.09031 6.34,16.33958 5.81528,48.0098 -0.534,32.22969 -1.03496,34.50714 -9.70005,44.09837 -2.68455,2.97148 -7.69285,6.78773 -11.12956,8.48059 -6.05157,2.98086 -7.54456,3.09117 -47.35552,3.49878 -44.23521,0.45292 -51.44598,-0.24833 -59.89305,-5.82464 l -5,-3.30074 -5,3.28677 c -2.75,1.80772 -7.7,3.90156 -11,4.65299 -8.89624,2.0257 -83.090167,1.67592 -90.905925,-0.42858 z m 91.008485,-26.03745 3.89744,-3.89743 V 158 129.12821 l -3.89744,-3.89744 -3.89743,-3.89743 H 72.666665 31.794871 l -3.897436,3.89743 -3.897436,3.89744 V 158 186.8718 l 3.897436,3.89743 3.897436,3.89744 h 40.871794 40.871795 z m 121.33333,0 3.89744,-3.89743 V 158 129.12821 l -3.89744,-3.89744 -3.89743,-3.89743 H 194 153.1282 l -3.89743,3.89743 -3.89744,3.89744 V 158 186.8718 l 3.89744,3.89743 3.89743,3.89744 H 194 234.87179 Z M 117.43589,93.435899 121.33333,89.538463 V 60.666668 31.794872 L 117.43589,27.897436 113.53846,24 H 72.666665 31.794871 l -3.897436,3.897436 -3.897436,3.897436 v 28.871796 28.871795 l 3.897436,3.897436 3.897436,3.897436 h 40.871794 40.871795 z m 121.33333,0 3.89744,-3.897436 V 60.666668 31.794872 L 238.76922,27.897436 234.87179,24 H 194 153.1282 l -3.89743,3.897436 -3.89744,3.897436 v 28.871796 28.871795 l 3.89744,3.897436 3.89743,3.897436 H 194 234.87179 Z"
       id="path52"
       inkscape:connector-curvature="0" />
    <path
       style="fill:#9ba2a7;stroke-width:1.33333337"
       d="M 27.737614,216.84391 C 13.939261,213.03434 4.2184904,202.5644 1.2632806,188.32923 0.30079803,183.69298 -0.08835344,170.62287 0.20629182,152.82904 L 0.67262805,124.66667 4.8747373,117 9.0768467,109.33333 4.8717567,101.66667 0.66666665,94.000001 V 61.333334 c 0,-30.343631 0.19834332,-33.093347 2.78911555,-38.666667 C 7.6127417,13.724134 12.588109,8.5623065 21.061205,4.4014534 L 28.666666,0.66666668 H 73.333331 118 l 7.66666,4.20509022 7.66667,4.2050902 L 141,4.8717569 148.66666,0.66666668 h 44.66667 44.66666 l 7.60547,3.73478672 c 8.47309,4.1608531 13.44845,9.3226806 17.60541,18.2652136 2.58618,5.563408 2.78912,8.332072 2.78912,38.049193 v 32.049192 l -4.106,8.284138 -4.106,8.28414 4.106,8.28415 4.106,8.28414 V 157.95082 190 l -3.73478,7.60547 c -4.16086,8.47309 -9.32268,13.44845 -18.26522,17.60541 C 238.29373,217.86346 235.84353,218 193.95081,218 h -44.0492 l -8.28413,-4.106 -8.28415,-4.106 -8.27923,4.106 -8.27923,4.106 -41.387435,0.28644 c -30.561443,0.21152 -43.02553,-0.16581 -47.649821,-1.44253 z m 89.698276,-26.07468 3.89744,-3.89743 V 158 129.12821 l -3.89744,-3.89744 -3.89743,-3.89743 H 72.666665 31.794871 l -3.897436,3.89743 -3.897436,3.89744 V 158 186.8718 l 3.897436,3.89743 3.897436,3.89744 h 40.871794 40.871795 z m 121.33333,0 3.89744,-3.89743 V 158 129.12821 l -3.89744,-3.89744 -3.89743,-3.89743 H 194 153.1282 l -3.89743,3.89743 -3.89744,3.89744 V 158 186.8718 l 3.89744,3.89743 3.89743,3.89744 H 194 234.87179 Z M 117.43589,93.435899 121.33333,89.538463 V 60.666668 31.794872 L 117.43589,27.897436 113.53846,24 H 72.666665 31.794871 l -3.897436,3.897436 -3.897436,3.897436 v 28.871796 28.871795 l 3.897436,3.897436 3.897436,3.897436 h 40.871794 40.871795 z m 121.33333,0 3.89744,-3.897436 V 60.666668 31.794872 L 238.76922,27.897436 234.87179,24 H 194 153.1282 l -3.89743,3.897436 -3.89744,3.897436 v 28.871796 28.871795 l 3.89744,3.897436 3.89743,3.897436 H 194 234.87179 Z"
       id="path50"
       inkscape:connector-curvature="0" />
    <path
       style="fill:#949ca2;stroke-width:1.33333337"
       d="M 29.529019,217.28352 C 17.312332,214.77578 6.6028608,205.41052 2.4019949,193.5614 1.1644829,190.07083 0.66666665,179.64364 0.66666665,157.21348 V 125.7603 L 4.9034087,117.54682 9.1401508,109.33333 4.9034087,101.11846 0.66666665,92.903579 V 60.785122 c 0,-29.787396 0.20242539,-32.553916 2.78911555,-38.118455 C 7.6127417,13.724134 12.588109,8.5623065 21.061205,4.4014534 l 7.605461,-3.73478672 h 44.118454 44.11845 l 8.21488,4.23674222 8.21488,4.2367423 8.21488,-4.2367423 8.21488,-4.23674222 h 44.11845 44.11845 l 7.60547,3.73478672 c 8.47309,4.1608531 13.44845,9.3226806 17.60541,18.2652136 2.5867,5.564539 2.78912,8.331059 2.78912,38.118455 v 32.118457 l -4.23674,8.214881 -4.23674,8.21487 4.23674,8.21488 4.23674,8.21488 V 157.88155 190 l -3.73478,7.60547 c -4.16086,8.47309 -9.32268,13.44845 -18.26522,17.60541 C 238.29313,217.86374 235.84454,218 193.88154,218 h -44.11845 l -8.21488,-4.23674 -8.21488,-4.23674 -8.21068,4.23674 -8.21068,4.23674 -40.789317,0.2375 c -22.434126,0.13066 -43.401262,-0.29867 -46.593634,-0.95398 z m 88.289161,-26.132 3.51515,-3.51516 v -29.87878 -29.87879 l -3.27273,-3.27273 -3.27272,-3.27272 H 72.909089 31.030302 l -3.515151,3.51515 -3.515152,3.51515 v 29.69966 29.69965 l 4.1023,3.45187 4.102302,3.45185 h 41.049213 41.049216 z m 120.74617,0.0633 4.10231,-3.45187 V 158.0633 128.36364 l -3.51515,-3.51515 -3.51516,-3.51519 h -41.87878 -41.87879 l -3.27272,3.27272 -3.27273,3.27273 v 29.87879 29.87878 l 3.51515,3.51516 3.51516,3.51515 h 41.04921 41.04921 l 4.10229,-3.45185 z M 118.0606,94.060608 121.33333,90.78788 V 60.909092 31.030303 L 117.81818,27.515152 114.30303,24 H 73.253814 32.204601 l -4.102302,3.451859 -4.1023,3.451857 v 29.699658 29.699658 l 3.515152,3.515151 3.515151,3.515152 h 41.878787 41.878791 z m 121.09091,-0.242425 3.51515,-3.515151 V 60.603374 30.903716 L 238.56435,27.451859 234.46206,24 h -41.04921 -41.04921 l -3.51516,3.515152 -3.51515,3.515151 V 60.909092 90.78788 l 3.27273,3.272728 3.27272,3.272727 h 41.87879 41.87878 z"
       id="path48"
       inkscape:connector-curvature="0" />
  </g>
</svg>
