<?xml version="1.0" ?><!DOCTYPE svg  PUBLIC '-//W3C//DTD SVG 1.1 Tiny//EN'  'http://www.w3.org/Graphics/SVG/1.1/DTD/svg11-tiny.dtd'><svg baseProfile="tiny" height="32px" version="1.1" viewBox="0 0 32 32" width="32px" xml:space="preserve" xmlns="http://www.w3.org/2000/svg" xmlns:xlink="http://www.w3.org/1999/xlink"><g id="Guides__x26__Forms"/><g id="Icons"><g><path d="M16,12.023c-2.196,0-3.977,1.781-3.977,3.977c0,2.196,1.78,3.977,3.977,3.977c2.196,0,3.977-1.781,3.977-3.977    C19.977,13.804,18.196,12.023,16,12.023z M16,17.977c-1.09,0-1.977-0.887-1.977-1.977c0-1.09,0.887-1.977,1.977-1.977    c1.09,0,1.977,0.887,1.977,1.977C17.977,17.09,17.09,17.977,16,17.977z"/><path d="M26,17v-2h-2.069c-0.182-1.46-0.757-2.794-1.617-3.9l1.464-1.464l-1.414-1.414L20.9,9.686    C19.794,8.826,18.46,8.252,17,8.069V6h-2v2.069c-1.46,0.182-2.794,0.757-3.9,1.617L9.636,8.222L8.222,9.636L9.686,11.1    C8.826,12.206,8.252,13.54,8.069,15H6v2h2.069c0.182,1.46,0.757,2.794,1.617,3.9l-1.464,1.464l1.414,1.414l1.464-1.464    c1.106,0.859,2.441,1.434,3.9,1.617V26h2v-2.069c1.46-0.182,2.794-0.757,3.9-1.617l1.464,1.464l1.414-1.414L22.314,20.9    c0.859-1.106,1.434-2.441,1.617-3.9H26z M16,22c-3.308,0-6-2.692-6-6s2.692-6,6-6s6,2.692,6,6S19.308,22,16,22z"/></g></g></svg>