<?xml version="1.0" encoding="UTF-8" standalone="no"?>
<!-- Created with Inkscape (http://www.inkscape.org/) -->

<svg
   xmlns:dc="http://purl.org/dc/elements/1.1/"
   xmlns:cc="http://creativecommons.org/ns#"
   xmlns:rdf="http://www.w3.org/1999/02/22-rdf-syntax-ns#"
   xmlns:svg="http://www.w3.org/2000/svg"
   xmlns="http://www.w3.org/2000/svg"
   xmlns:sodipodi="http://sodipodi.sourceforge.net/DTD/sodipodi-0.dtd"
   xmlns:inkscape="http://www.inkscape.org/namespaces/inkscape"
   version="1.1"
   id="svg10"
   width="266.66666"
   height="266.66666"
   viewBox="0 0 266.66666 266.66666"
   sodipodi:docname="links.svg"
   inkscape:version="0.92.1 r15371">
  <metadata
     id="metadata16">
    <rdf:RDF>
      <cc:Work
         rdf:about="">
        <dc:format>image/svg+xml</dc:format>
        <dc:type
           rdf:resource="http://purl.org/dc/dcmitype/StillImage" />
        <dc:title></dc:title>
      </cc:Work>
    </rdf:RDF>
  </metadata>
  <defs
     id="defs14" />
  <sodipodi:namedview
     pagecolor="#ffffff"
     bordercolor="#666666"
     borderopacity="1"
     objecttolerance="10"
     gridtolerance="10"
     guidetolerance="10"
     inkscape:pageopacity="0"
     inkscape:pageshadow="2"
     inkscape:window-width="1600"
     inkscape:window-height="838"
     id="namedview12"
     showgrid="false"
     inkscape:zoom="2.5162501"
     inkscape:cx="133.33333"
     inkscape:cy="133.33333"
     inkscape:window-x="-8"
     inkscape:window-y="-8"
     inkscape:window-maximized="1"
     inkscape:current-layer="svg10" />
  <g
     id="g20"
     transform="translate(3.0801158e-7,0.39741705)">
    <path
       style="fill:#e6e8ea;stroke-width:1.33333325"
       d="M 37.714718,264.80599 C 23.832826,260.28555 10.567337,248.45702 4.2400747,234.95742 c -3.1983139,-6.82381 -3.57340805,-9.16657 -3.57340805,-22.3188 0,-21.76344 2.56285985,-26.34704 31.00703135,-55.45524 18.999325,-19.44285 23.358509,-23.20922 31.520755,-27.23419 14.070569,-6.93848 29.233957,-7.61603 44.084537,-1.96985 l 3.84707,1.46265 -6.34798,6.44489 -6.347986,6.44489 -10.215048,-0.13397 c -15.0252,-0.19706 -18.557033,1.99764 -43.081514,26.77108 -24.78659,25.03821 -27.087375,28.74988 -27.087375,43.69778 0,12.31587 2.441922,18.2144 10.840864,26.18643 7.256899,6.88802 13.129235,9.45642 23.281884,10.18284 14.066031,1.00642 20.312017,-2.58168 43.035561,-24.72244 10.337544,-10.07243 20.843904,-21.14882 23.347474,-24.6142 4.05558,-5.61367 4.61871,-7.45417 5.16428,-16.87861 l 0.61235,-10.5779 6.47165,-6.37433 c 3.55942,-3.50589 6.79992,-6.04608 7.20114,-5.64487 0.40121,0.40122 1.65225,5.15508 2.78006,10.56416 1.67106,8.01442 1.77076,11.44163 0.53868,18.51678 -2.60409,14.95375 -7.37332,21.78299 -32.05678,45.90338 -27.892125,27.25584 -33.483102,30.52387 -53.158172,31.07195 -8.138881,0.2267 -14.80995,-0.30792 -18.39043,-1.47386 z m 39.064817,-74.01461 c -5.494323,-6.07116 -4.443389,-7.38357 50.667335,-63.27394 45.68354,-46.329814 52.6087,-52.850775 56.12669,-52.850775 2.25418,0 5.02141,1.114132 6.31357,2.541946 5.48636,6.062358 4.427,7.386624 -50.61248,63.268889 -45.95724,46.66096 -52.535456,52.85583 -56.126679,52.85583 -2.308152,0 -5.063192,-1.09967 -6.368436,-2.54195 z m 89.982745,-49.5752 c -9.14842,-1.79469 -9.49503,-3.11501 -2.62207,-9.98797 5.78505,-5.78505 6.46917,-6.08654 15.29123,-6.73863 14.60428,-1.0795 18.66256,-3.62852 41.21175,-25.885222 25.05623,-24.731199 28.03127,-29.469661 28.00484,-44.604359 -0.0211,-12.049548 -1.8525,-16.745197 -9.79494,-25.112978 -7.04639,-7.423734 -13.94579,-10.542183 -24.8531,-11.233324 -8.60833,-0.545468 -9.98285,-0.244276 -17.69499,3.877448 -9.76586,5.219324 -46.46168,40.711104 -50.51071,48.853384 -1.77669,3.572801 -2.50847,8.225313 -2.63184,16.732802 l -0.17087,11.783999 -5.77341,5.88267 c -3.17536,3.23546 -6.19207,5.88266 -6.70378,5.88266 -1.5406,0 -5.21721,-12.167552 -6.04949,-20.020477 -0.93614,-8.832808 1.9699,-21.409529 7.14332,-30.914806 2.24039,-4.116344 11.84326,-14.639031 25.85144,-28.327656 28.8013,-28.1442685 33.45586,-30.73705435 55.17896,-30.73705435 13.17343,0 15.48877,0.37212405 22.36489,3.59451535 10.69471,5.0119023 21.42208,15.567703 26.68498,26.258169 4.06921,8.265737 4.3115,9.583712 4.3115,23.452612 0,21.945418 -1.59461,24.7402 -31.07477,54.463037 -25.03499,25.24106 -31.27635,29.74833 -45.32418,32.73132 -8.0347,1.70612 -14.32606,1.71986 -22.83876,0.0499 z"
       id="path34"
       inkscape:connector-curvature="0" />
    <path
       style="fill:#ccd0d2;stroke-width:1.33333325"
       d="M 39.333332,264.79713 C 23.862539,259.89153 11.695964,249.34822 5.0041709,235.04818 -2.8725087,218.2161 -1.1341773,197.00088 9.3417676,182.11056 11.448271,179.11642 22.658123,166.98682 34.252552,155.1559 c 23.231371,-23.70522 28.75428,-27.40861 44.853151,-30.07628 8.966545,-1.4858 17.913596,-0.5247 26.813667,2.88036 l 3.91938,1.49951 -6.17154,6.17153 -6.171538,6.17155 -10.414504,0.10947 c -15.3447,0.16134 -20.187706,3.30864 -44.361122,28.82876 -10.890903,11.49762 -20.848784,22.92973 -22.128627,25.40466 -3.498282,6.76493 -4.084257,20.67903 -1.232457,29.26499 3.066615,9.23272 12.284783,18.64216 21.2588,21.6999 8.835054,3.01042 21.253302,2.82808 28.402744,-0.41701 3.367942,-1.52868 14.347407,-10.77829 26.923617,-22.68169 24.765527,-23.44062 28.332287,-28.87861 28.223677,-43.03073 -0.065,-8.46654 -0.0277,-8.55256 6.49576,-14.9779 l 6.56112,-6.46246 1.6733,3.89637 c 0.97559,2.27167 1.6932,9.73403 1.721,17.89636 0.0712,20.89925 -1.98124,24.5024 -29.10385,51.09356 -11.83332,11.60146 -24.155614,22.94254 -27.382869,25.2024 -11.643953,8.15357 -31.613678,11.34873 -44.798929,7.16784 z m 38.296674,-73.5394 c -2.000584,-1.40127 -2.963341,-3.44631 -2.963341,-6.29459 0,-3.77569 5.566126,-9.79152 52.977555,-57.25772 35.2162,-35.256873 53.8914,-53.038755 55.70332,-53.038755 4.76887,0 8.65246,3.756897 8.65246,8.370181 0,3.775701 -5.56614,9.791528 -52.97756,57.257724 -35.2162,35.25688 -53.891407,53.03876 -55.703327,53.03876 -1.499171,0 -4.059268,-0.93403 -5.689107,-2.0756 z m 92.945014,-49.96844 c -12.37386,-1.47699 -12.9206,-2.4106 -5.57316,-9.51682 5.79946,-5.60907 7.00958,-6.18026 14.40156,-6.79774 14.67828,-1.22612 19.3845,-4.30358 42.89651,-28.050634 11.7574,-11.874921 22.44025,-23.68598 23.73969,-26.246799 3.53211,-6.960799 4.12893,-20.807897 1.26808,-29.421127 -3.06661,-9.232713 -12.28479,-18.642152 -21.2588,-21.699908 -8.81405,-3.003248 -21.25427,-2.827702 -28.36534,0.400268 -3.32546,1.50954 -14.4103,10.858076 -26.94416,22.723674 -25.72468,24.353145 -28.79948,29.256004 -28.55867,45.537747 l 0.15119,10.222016 -5.88434,5.775043 c -4.85484,4.76467 -6.10862,5.426 -7.16631,3.78001 -4.60327,-7.16366 -5.60355,-26.954561 -1.92036,-37.995022 1.22323,-3.666666 4.03245,-9.5205 6.2427,-13.008517 4.38707,-6.923265 44.20584,-45.349329 51.72972,-49.9204162 13.89101,-8.4393902 34.3023,-9.2792983 49.75644,-2.0474368 30.23501,14.148676 41.0011,52.568393 22.28682,79.532471 -5.94025,8.558869 -46.77325,48.103241 -52.86408,51.195751 -9.64781,4.89852 -22.17119,6.94191 -33.93749,5.53744 z"
       id="path32"
       inkscape:connector-curvature="0" />
    <path
       style="fill:#bdc2c5;stroke-width:1.33333325"
       d="M 38.129455,264.0095 C 6.1404834,253.79261 -8.9418416,217.59129 6.2578576,187.50977 9.1988686,181.68925 34.67113,153.62028 49.80814,139.51984 64.261252,126.05646 88.064599,121.18097 106.01778,128.00676 l 3.77495,1.43523 -6.26582,6.36147 -6.265814,6.36147 -7.832605,-0.56656 c -5.13629,-0.37152 -10.287494,0.21725 -14.963882,1.71035 -6.385607,2.03881 -9.418072,4.59896 -29.001191,24.48409 -25.115168,25.50249 -28.460821,30.7958 -28.37945,44.90046 0.11936,20.69068 16.097687,36.86008 36.615232,37.05311 13.731333,0.1292 19.736167,-3.55449 43.860894,-26.90657 24.055086,-23.28465 26.867746,-27.62595 27.028996,-41.71883 0.10122,-8.84652 0.22651,-9.15918 6.04678,-15.08961 l 5.94342,-6.05591 2.01297,3.67894 c 1.40822,2.57364 2.02222,7.68477 2.0437,17.01226 0.028,12.18044 -0.32587,14.08272 -4.09306,22 -2.26806,4.76667 -6.76806,11.45671 -10,14.86676 -14.63535,15.44195 -41.450046,39.86896 -46.728067,42.56724 -13.416144,6.85871 -28.129594,8.23839 -41.685378,3.90884 z m 39.203876,-73.34284 c -6.243514,-6.24352 -6.200581,-6.29718 50.333329,-62.9221 38.43796,-38.499833 53.82427,-53.084301 56,-53.081607 1.65,0.002 4.2,1.203712 5.66667,2.670378 6.27797,6.277972 6.25113,6.311536 -50.33677,62.949589 -38.35157,38.38556 -53.831789,53.05041 -56.000002,53.05041 -1.648108,0 -4.19656,-1.2 -5.663227,-2.66667 z m 85.470959,-50.87576 -4.52905,-1.3019 6.47893,-6.57784 c 5.90167,-5.99177 7.02609,-6.57783 12.62037,-6.57783 3.3778,0 9.39794,-0.96707 13.37807,-2.14904 6.57005,-1.9511 9.34665,-4.2374 30.14436,-24.82136 26.02286,-25.755433 28.76852,-30.037894 28.6837,-44.738718 C 249.46207,33.065323 233.23226,17 212.58149,17 c -13.48381,0 -19.51837,3.698401 -42.98563,26.34455 -24.87754,24.007091 -27.52564,28.25843 -27.56736,44.257377 -0.0284,10.922261 -0.0348,10.941681 -5.2991,16.333333 -2.89883,2.96894 -5.73207,5.39807 -6.29609,5.39807 -0.56402,0 -2.01249,-3.39518 -3.21883,-7.54485 -5.15259,-17.724273 0.0971,-39.13692 12.90928,-52.655243 14.63534,-15.441942 41.45005,-39.8689615 46.72806,-42.5672352 12.92072,-6.60543697 25.54297,-8.0532955 39.20137,-4.4966675 27.12884,7.0643095 44.22895,33.3455327 39.52916,60.7525477 -2.59766,15.148396 -6.49992,21.028799 -29.43113,44.350498 -21.56975,21.93704 -29.54184,28.19212 -40.72208,31.9515 -7.28936,2.45105 -25.14846,2.8162 -32.62485,0.66702 z"
       id="path30"
       inkscape:connector-curvature="0" />
    <path
       style="fill:#b8bdc1;stroke-width:1.33333325"
       d="M 40.032324,264.52921 C 21.226957,259.47574 7.0241473,245.08101 2.0693343,226.05319 -0.5369326,216.04443 -0.54351997,209.34106 2.0430246,199.28013 5.1960932,187.01557 10.917946,179.23874 33.999999,155.84596 61.019637,128.46257 65.365142,126 86.666664,126 c 8.99728,0 15.579906,0.66638 18.421316,1.86487 l 4.42132,1.86487 -6.1241,6.21759 c -6.119498,6.21292 -6.129993,6.21717 -13.956709,5.65104 -5.145465,-0.37219 -10.279141,0.21657 -14.963882,1.71616 -6.374085,2.04033 -9.477787,4.65579 -29.230847,24.63249 -25.198936,25.48424 -28.223885,30.1886 -28.326506,44.05297 -0.159387,21.53359 16.100799,37.80667 37.759409,37.78934 13.872887,-0.0107 18.728485,-3.12944 44.243257,-28.4137 21.093188,-20.90262 22.359258,-22.44917 24.486808,-29.91146 1.38353,-4.85268 1.95089,-10.00435 1.48009,-13.43928 -0.72572,-5.29465 -0.44119,-5.88755 5.75356,-11.98915 l 6.51703,-6.41904 2.25371,7.75247 c 3.29066,11.31951 2.1648,24.48833 -3.04556,35.6226 -3.44567,7.36321 -7.36996,11.93396 -25.62937,29.85136 -11.858398,11.63628 -24.672955,23.0875 -28.476792,25.44717 -12.664437,7.85625 -27.848297,10.10015 -42.217074,6.23891 z m 37.301007,-73.86255 c -5.825953,-5.82596 -5.517255,-6.20985 50.333329,-62.59416 39.06731,-39.440653 53.78864,-53.493262 56,-53.456165 C 187.6547,74.683242 192,79.201246 192,83.280891 192,87.865464 87.4744,193.4422 82.999998,193.37702 c -1.65,-0.024 -4.2,-1.24369 -5.666667,-2.71036 z m 85.470959,-50.80276 -4.52905,-1.3749 6.47893,-6.57784 c 6.12999,-6.22358 6.85591,-6.57783 13.47903,-6.57783 14.21838,0 18.89272,-3.00804 44.00303,-28.316983 14.85094,-14.968405 23.62907,-24.881213 25.10463,-28.349682 3.37949,-7.943889 3.15656,-21.157904 -0.49489,-29.333333 -6.33307,-14.179457 -19.19558,-22.468522 -34.84598,-22.456 -13.80113,0.01107 -18.6409,3.120994 -44.20427,28.404907 -21.20306,20.971247 -22.40495,22.438342 -24.54335,29.958963 -1.53875,5.411709 -2.00023,10.283243 -1.46196,15.43308 0.78165,7.478452 0.75129,7.5598 -4.88573,13.092128 -3.11976,3.06181 -6.08282,5.56692 -6.58457,5.56692 -2.45567,0 -5.27388,-15.568007 -4.72192,-26.084221 0.94605,-18.024557 4.92802,-24.48651 30.63167,-49.709166 23.46571,-23.026587 30.89114,-28.3988155 43.76782,-31.6656053 38.60523,-9.7940763 74.62423,26.2324163 64.78119,64.7946463 -3.42904,13.433953 -9.0731,21.143351 -32.25618,44.059656 -18.1742,17.96506 -22.90067,21.90182 -30.67059,25.54613 -8.0526,3.77691 -10.74761,4.34868 -21.8521,4.63613 -6.96667,0.18035 -14.70474,-0.29081 -17.19571,-1.047 z"
       id="path28"
       inkscape:connector-curvature="0" />
    <path
       style="fill:#aab0b5;stroke-width:1.33333325"
       d="M 41.999999,264.81653 C 14.618713,258.14915 -3.4029167,231.49031 1.1002182,204.31477 3.6738086,188.78365 7.6481929,182.8761 32.517405,157.61614 c 27.132806,-27.55913 32.697943,-31.07142 50.731704,-32.01795 7.839649,-0.41147 13.221443,0.0703 18.755181,1.67902 l 7.76065,2.25609 -6.0449,6.0449 -6.044906,6.0449 -11.170901,0.23064 c -8.486526,0.17523 -12.452506,0.90904 -16.504235,3.05375 -8.032245,4.25173 -46.107324,43.64648 -50.02531,51.75917 -4.60851,9.54251 -4.46906,22.75647 0.338595,32.08461 3.984208,7.73042 12.002911,15.5088 19.323681,18.74455 7.489896,3.31051 22.11508,3.06253 30.05766,-0.50963 7.734982,-3.4788 47.749606,-42.15892 52.055606,-50.31953 2.05797,-3.9002 2.85148,-7.93965 2.95303,-15.03261 0.13756,-9.60883 0.19398,-9.75552 6.05113,-15.73181 l 5.91227,-6.03254 1.9341,4.39848 c 1.22592,2.78794 1.95822,9.04676 2,17.09319 0.10213,19.6802 -2.72227,24.40586 -31.55024,52.78789 -24.562874,24.18291 -30.798199,28.51097 -44.899175,31.16541 -8.921804,1.67951 -13.644461,1.5733 -22.151346,-0.49814 z m 35.824415,-74.62935 c -3.242791,-2.78933 -3.587439,-3.72238 -2.463947,-6.67053 1.324675,-3.47608 98.563093,-103.427973 104.236693,-107.145459 6.87369,-4.503819 15.27272,3.887047 10.64885,10.63852 C 185.9303,93.311252 87.187475,191.93293 84.463946,192.66201 c -1.920556,0.51412 -4.116075,-0.30424 -6.639532,-2.47483 z M 163.59897,139.64917 158.53128,138 l 6.40102,-6.18367 c 6.15006,-5.94121 6.76698,-6.20784 15.73436,-6.80022 13.96634,-0.9226 18.60126,-3.95156 42.11108,-27.519947 24.26267,-24.323114 27.15576,-28.967531 27.09453,-43.496164 -0.0473,-11.240361 -4.04078,-20.163801 -12.40566,-27.72097 -7.70254,-6.958776 -13.9011,-9.315141 -24.79995,-9.427637 -14.61853,-0.150891 -19.00566,2.625632 -44.8404,28.378482 -19.75321,19.690614 -22.42846,22.889559 -24.50734,29.304739 -1.68896,5.211957 -2.12063,9.482017 -1.56264,15.457463 l 0.77098,8.256183 -5.64744,5.542531 c -3.10608,3.0484 -6.00809,5.54254 -6.4489,5.54254 -0.4408,0 -1.85523,-3.89293 -3.14317,-8.65095 -3.32034,-12.266348 -2.15349,-25.756946 3.19761,-36.969168 3.36166,-7.043731 7.89901,-12.261495 27.10936,-31.174697 25.14373,-24.7548056 30.95761,-28.693222 46.36253,-31.4067441 35.28469,-6.2152774 67.78508,26.3374761 61.56278,61.6619981 -2.7411,15.561474 -6.54825,21.14753 -31.45193,46.147941 -19.67588,19.75231 -24.11604,23.5328 -31.93851,27.19337 -7.71334,3.6095 -10.92642,4.32048 -21.27423,4.70745 -7.3323,0.2742 -14.20784,-0.20128 -17.25639,-1.19336 z"
       id="path26"
       inkscape:connector-curvature="0" />
    <path
       style="fill:#9ba2a8;stroke-width:1.33333325"
       d="M 43.999999,265.20273 C 16.275085,259.78822 -3.4612666,231.63742 1.2997656,204.29755 3.9315828,189.18454 8.4676818,182.42101 32.572402,157.66858 c 18.484243,-18.98092 23.412295,-23.2847 30.861064,-26.95173 11.388536,-5.60655 26.46503,-6.95889 38.518014,-3.45499 l 7.81346,2.27144 -6.10809,6.10808 -6.108087,6.1081 -9.774383,-0.23326 C 72.92561,141.16189 68.889061,143.63578 44.562014,168 c -24.44154,24.47888 -27.897213,30.01282 -27.892076,44.66666 0.0076,21.52459 15.75074,37.21432 37.424334,37.29725 14.1768,0.0543 20.362094,-3.7964 44.624903,-27.78122 11.025845,-10.89951 21.337675,-22.29951 22.915185,-25.33333 1.96094,-3.77124 2.97549,-8.42776 3.20741,-14.72128 0.3259,-8.84346 0.56053,-9.43075 5.9696,-14.94219 3.09671,-3.15531 6.06163,-5.47039 6.58873,-5.14463 1.93108,1.19348 4.24292,18.21398 3.36888,24.8028 -2.17802,16.41879 -4.51248,19.91545 -30.60049,45.83525 -26.068475,25.9004 -31.570179,29.72868 -46.746704,32.52804 -8.931409,1.64743 -10.964935,1.64694 -19.421787,-0.004 z M 76.74227,189.03665 c -1.141583,-1.62983 -2.075605,-3.77639 -2.075605,-4.77012 0,-2.19157 101.602315,-105.556245 106.136915,-107.977923 C 185.53425,73.762225 192,78.210733 192,83.991865 c 0,0.82528 -23.55,25.458045 -52.33334,54.739475 -47.157976,47.97406 -52.754385,53.24044 -56.591057,53.25382 -2.899557,0.0107 -4.919824,-0.93044 -6.333333,-2.94851 z M 165.599,140.09417 c -2.42055,-0.61511 -4.78312,-1.50052 -5.25018,-1.96756 -0.46705,-0.46705 1.78832,-3.53661 5.01195,-6.82123 5.67985,-5.78736 6.11396,-5.97205 14.03721,-5.97205 13.59571,0 20.51039,-4.42831 44.21532,-28.316412 23.49568,-23.677235 26.29544,-28.248369 26.34735,-43.016919 0.0755,-21.483473 -15.69366,-37.214245 -37.38827,-37.297258 -14.24997,-0.05453 -20.40402,3.787989 -44.71036,27.916585 -11.0548,10.973963 -21.38897,22.373963 -22.96482,25.333332 -2.27931,4.280392 -2.86848,7.698201 -2.8812,16.714006 L 142,97.999998 l -5.7606,5.260022 c -6.56104,5.99091 -7.24394,5.63315 -9.52959,-4.992317 -3.01624,-14.021852 -0.60659,-28.141842 6.79139,-39.795988 2.16289,-3.407222 13.47022,-15.528537 25.12741,-26.936257 23.32175,-22.8226521 30.539,-27.6009273 45.66894,-30.2356924 35.02627,-6.0995605 67.34104,26.5954454 60.97647,61.6939444 -2.72369,15.020268 -6.90859,20.912449 -33.48525,47.14607 -21.6774,21.3976 -25.36422,24.48583 -32.45544,27.18608 -8.69244,3.30996 -26.0104,4.73111 -33.73433,2.76831 z"
       id="path24"
       inkscape:connector-curvature="0" />
    <path
       style="fill:#949ca2;stroke-width:1.33333325"
       d="M 45.333332,265.11707 C 34.909827,263.46309 24.453387,257.94094 16.270706,249.76882 0.00657611,233.5257 -3.776656,208.65518 6.9275362,188.34793 10.05186,182.42069 17.467112,173.60062 32.421705,158.02394 c 18.633187,-19.4083 22.241635,-22.5356 30.994141,-26.86132 12.339449,-6.09849 25.058758,-7.43098 37.210874,-3.89827 l 7.74837,2.25252 -5.65309,5.76007 c -5.635862,5.74254 -5.682592,5.7601 -15.327018,5.7601 -15.568138,0 -19.430797,2.39916 -42.974231,26.69194 -25.004346,25.80022 -27.779963,30.30562 -27.684473,44.93768 0.102827,15.75648 6.053004,25.95337 19.486762,33.39473 6.231546,3.45184 8.428564,3.93542 17.776959,3.91283 15.101215,-0.0365 19.502266,-2.77008 45.473665,-28.24467 23.692886,-23.23966 25.859666,-26.73281 25.859666,-41.68946 0,-7.08179 0.31519,-7.79421 5.85269,-13.22885 l 5.8527,-5.74399 1.80065,5.13304 c 0.99037,2.82317 1.79867,9.98033 1.79621,15.9048 -0.004,9.76289 -0.47461,11.72307 -5.02434,20.92884 -4.49067,9.08624 -7.3435,12.37853 -27.05989,31.22824 -12.121988,11.58913 -24.25504,22.41878 -26.962333,24.06588 -10.258364,6.24109 -23.767228,8.77069 -36.255685,6.78902 z m 31.333822,-76.26254 c -1.165225,-1.77835 -1.682375,-4.24124 -1.189871,-5.66667 0.479114,-1.38665 24.339876,-26.0712 53.023917,-54.85453 42.92256,-43.071129 52.78949,-52.333332 55.7502,-52.333332 3.70164,0 7.7486,4.138867 7.7486,7.924584 0,1.098847 -23.83991,25.865338 -52.97756,55.036658 -56.710853,56.77636 -57.455125,57.37189 -62.355286,49.89329 z m 88.827166,-49.02496 -5.83903,-1.38801 6.45556,-6.55411 c 6.05996,-6.15247 6.87305,-6.55412 13.26817,-6.55412 13.97026,0 17.98794,-2.48369 41.4532,-25.625902 13.31532,-13.132015 22.86943,-23.72105 25.0994,-27.818255 9.78505,-17.978372 2.96465,-40.803719 -15.26496,-51.086139 -6.50733,-3.67046 -8.5348,-4.136368 -18,-4.136368 -9.1982,0 -11.58447,0.512951 -17.33333,3.725973 -8.85039,4.946447 -47.46767,42.668894 -50.78411,49.607359 -1.7914,3.747865 -2.62365,8.671956 -2.79957,16.564079 l -0.25036,11.230745 -5.45308,5.435918 c -6.3177,6.29781 -6.86702,5.94217 -9.42263,-6.100414 -2.28457,-10.765404 -0.84509,-22.41226 4.08929,-33.086542 3.47633,-7.520129 7.16465,-11.770184 26.99018,-31.100726 17.53,-17.092317 24.89029,-23.3443622 31.10617,-26.4224523 20.78451,-10.2924403 44.97097,-6.21707416 61.58673,10.3772283 15.95144,15.930844 19.88047,40.465647 9.76211,60.959603 -3.18953,6.460146 -8.78668,12.877066 -27.08912,31.056653 -19.63069,19.49892 -24.41048,23.54187 -32.06996,27.12615 -10.11366,4.73272 -24.8981,6.31062 -35.50466,3.78933 z"
       id="path22"
       inkscape:connector-curvature="0" />
  </g>
</svg>
