<?xml version="1.0" encoding="UTF-8" standalone="no"?>
<!-- Created with Inkscape (http://www.inkscape.org/) -->

<svg
   xmlns:dc="http://purl.org/dc/elements/1.1/"
   xmlns:cc="http://creativecommons.org/ns#"
   xmlns:rdf="http://www.w3.org/1999/02/22-rdf-syntax-ns#"
   xmlns:svg="http://www.w3.org/2000/svg"
   xmlns="http://www.w3.org/2000/svg"
   xmlns:sodipodi="http://sodipodi.sourceforge.net/DTD/sodipodi-0.dtd"
   xmlns:inkscape="http://www.inkscape.org/namespaces/inkscape"
   version="1.1"
   id="svg10"
   width="266.66666"
   height="249.33333"
   viewBox="0 0 266.66666 249.33333"
   sodipodi:docname="recent.svg"
   inkscape:version="0.92.1 r15371">
  <metadata
     id="metadata16">
    <rdf:RDF>
      <cc:Work
         rdf:about="">
        <dc:format>image/svg+xml</dc:format>
        <dc:type
           rdf:resource="http://purl.org/dc/dcmitype/StillImage" />
        <dc:title></dc:title>
      </cc:Work>
    </rdf:RDF>
  </metadata>
  <defs
     id="defs14" />
  <sodipodi:namedview
     pagecolor="#ffffff"
     bordercolor="#666666"
     borderopacity="1"
     objecttolerance="10"
     gridtolerance="10"
     guidetolerance="10"
     inkscape:pageopacity="0"
     inkscape:pageshadow="2"
     inkscape:window-width="1600"
     inkscape:window-height="838"
     id="namedview12"
     showgrid="false"
     inkscape:zoom="2.6911765"
     inkscape:cx="133.33333"
     inkscape:cy="124.66666"
     inkscape:window-x="-8"
     inkscape:window-y="-8"
     inkscape:window-maximized="1"
     inkscape:current-layer="svg10" />
  <path
     style="fill:#000000;stroke-width:1.33333325"
     d="M 42.297404,247.31957 C 21.140592,242.64864 5.3502495,225.59846 1.9490785,203.75206 1.1197165,198.4249 0.75686051,165.65526 1.0056165,118.54781 1.4001295,43.83822 1.4784275,41.832888 4.2661345,35.041063 10.730558,19.291482 24.873916,6.2851914 39.669485,2.4839977 45.294262,1.0389115 64.904808,0.66666672 135.40982,0.66666672 c 81.92901,0 89.18903,0.1822757 95.54093,2.39872628 15.2824,5.3326854 28.22651,18.621952 33.37792,34.267941 2.223,6.751781 2.41448,13.730402 2.41448,87.999996 0,79.88671 -0.0284,80.7418 -2.93541,88.43671 -5.52177,14.61609 -17.56619,26.70029 -32.39792,32.50494 -5.48371,2.14615 -13.51496,2.37235 -93.33333,2.62871 -70.695908,0.22708 -88.94228,-0.0747 -95.779086,-1.58412 z M 221.78818,212.01574 c 4.36039,-1.97904 6.32501,-3.94366 8.30405,-8.30405 2.46694,-5.43535 2.59236,-9.25977 2.59236,-79.04503 0,-69.839362 -0.12373,-73.606056 -2.59796,-79.057525 -2.0237,-4.458945 -3.9017,-6.300909 -8.49633,-8.333333 -5.64857,-2.498629 -9.36319,-2.607895 -87.7061,-2.579852 -78.144205,0.02797 -82.063478,0.145373 -87.519394,2.621637 -4.360378,1.979036 -6.325014,3.943672 -8.30405,8.304051 -2.46693,5.435346 -2.592355,9.259778 -2.592355,79.045022 0,69.78526 0.125427,73.60968 2.592355,79.04503 1.979036,4.36039 3.943672,6.32501 8.30405,8.30405 5.458787,2.47758 9.342591,2.59236 87.711684,2.59236 78.3691,0 82.2529,-0.1148 87.71169,-2.59236 z M 72.743168,142.66666 v -17.33333 h 43.999992 44 V 142.66666 160 h -44 -43.999992 z m 0,-53.333327 V 72 h 61.333322 61.33333 V 89.333333 106.66667 H 134.07649 72.743168 Z"
     id="path20"
     inkscape:connector-curvature="0" />
</svg>
