<?xml version="1.0" encoding="UTF-8" standalone="no"?>
<!-- Created with Inkscape (http://www.inkscape.org/) -->

<svg
   xmlns:dc="http://purl.org/dc/elements/1.1/"
   xmlns:cc="http://creativecommons.org/ns#"
   xmlns:rdf="http://www.w3.org/1999/02/22-rdf-syntax-ns#"
   xmlns:svg="http://www.w3.org/2000/svg"
   xmlns="http://www.w3.org/2000/svg"
   xmlns:sodipodi="http://sodipodi.sourceforge.net/DTD/sodipodi-0.dtd"
   xmlns:inkscape="http://www.inkscape.org/namespaces/inkscape"
   version="1.1"
   id="svg10"
   width="266.66666"
   height="266.66666"
   viewBox="0 0 266.66666 266.66666"
   sodipodi:docname="share.svg"
   inkscape:version="0.92.1 r15371">
  <metadata
     id="metadata16">
    <rdf:RDF>
      <cc:Work
         rdf:about="">
        <dc:format>image/svg+xml</dc:format>
        <dc:type
           rdf:resource="http://purl.org/dc/dcmitype/StillImage" />
        <dc:title></dc:title>
      </cc:Work>
    </rdf:RDF>
  </metadata>
  <defs
     id="defs14" />
  <sodipodi:namedview
     pagecolor="#ffffff"
     bordercolor="#666666"
     borderopacity="1"
     objecttolerance="10"
     gridtolerance="10"
     guidetolerance="10"
     inkscape:pageopacity="0"
     inkscape:pageshadow="2"
     inkscape:window-width="1600"
     inkscape:window-height="838"
     id="namedview12"
     showgrid="false"
     inkscape:zoom="2.5162501"
     inkscape:cx="133.33333"
     inkscape:cy="133.33333"
     inkscape:window-x="-8"
     inkscape:window-y="-8"
     inkscape:window-maximized="1"
     inkscape:current-layer="svg10" />
  <g
     id="g20"
     transform="translate(4.4952758e-6,0.3974168)">
    <path
       style="fill:#e6e7e9;stroke-width:1.33333325"
       d="m 207.33333,262.87382 c -15.39237,-7.29353 -23.92607,-20.68427 -23.97241,-37.61652 l -0.0276,-10.07603 -54.47933,-27.71867 -54.479318,-27.71868 -4.854009,4.7289 C 50.652401,182.85481 17.902377,177.11393 4.5952034,153.0918 c -3.575803,-6.45504 -3.92853675,-8.22911 -3.92853675,-19.75847 0,-11.52936 0.35273375,-13.30342 3.92853675,-19.75847 C 16.96277,91.248906 46.393079,84.436181 65.957766,99.370244 69.293685,101.91661 72.517162,104 73.121049,104 c 0.603885,0 25.57013,-11.868948 55.480541,-26.375437 l 54.38257,-26.375434 0.2301,-9.957898 c 0.27148,-11.748365 3.30903,-19.50115 10.96884,-27.995988 15.61223,-17.314185 43.76372,-17.8880944 60.42007,-1.231751 16.65634,16.656343 16.08244,44.807836 -1.23175,60.420069 -8.61164,7.765133 -16.22293,10.68771 -28.06263,10.775468 -8.71984,0.06463 -11.182,-0.495284 -18.91768,-4.302052 -4.89122,-2.406995 -10.34194,-6.098172 -12.11271,-8.202615 l -3.21959,-3.826258 -54.52941,26.472107 c -36.40592,17.673799 -54.336887,27.047259 -53.95017,28.202609 0.318579,0.95178 0.663639,6.51973 0.766801,12.37323 l 0.18757,10.64272 53.847599,27.48753 53.8476,27.48754 4.19848,-4.4517 c 2.30916,-2.44841 7.73267,-6.10309 12.05226,-8.12149 10.24147,-4.78552 24.58899,-5.12713 34.01699,-0.80997 27.12198,12.41941 33.8696,47.62953 13.10664,68.39249 -12.42236,12.42236 -31.4734,15.75566 -47.26984,8.27065 z m 28,-16.04813 c 6.34376,-2.91307 9.18656,-5.88652 11.94914,-12.49834 4.1963,-10.04314 1.85011,-20.04865 -6.39969,-27.29208 -6.22345,-5.46426 -13.56039,-7.49562 -21.01959,-5.81965 -18.50024,4.15672 -25.36805,25.38475 -12.83188,39.66264 7.48162,8.52111 17.92034,10.71471 28.30202,5.94743 z M 53.274163,154.69685 c 16.85915,-8.60089 16.85915,-34.12614 0,-42.72704 -6.441247,-3.28608 -16.397641,-3.41923 -22.512694,-0.30107 -2.514524,1.28219 -6.414524,4.63695 -8.666667,7.45502 C 18.42583,123.71468 18,125.19238 18,133.33333 c 0,8.14095 0.42583,9.61864 4.094802,14.20957 2.252143,2.81807 6.152143,6.17283 8.666667,7.45503 6.115053,3.11815 16.071447,2.985 22.512694,-0.30108 z M 231.03643,65.253161 c 6.26695,-1.740343 14.11443,-8.490785 16.49551,-14.189506 2.37372,-5.681133 2.28063,-12.668991 -0.24947,-18.724349 -2.76258,-6.611808 -5.60538,-9.585268 -11.94914,-12.498332 -10.37094,-4.762353 -20.82667,-2.566533 -28.29806,5.942912 -13.87397,15.801584 -3.98689,38.646546 17.63139,40.738862 0.73333,0.07097 3.59973,-0.500339 6.36977,-1.269587 z"
       id="path34"
       inkscape:connector-curvature="0" />
    <path
       style="fill:#ccd0d3;stroke-width:1.33333325"
       d="m 209.89909,264.00474 c -9.90869,-3.93031 -17.11685,-10.75521 -22.14385,-20.96649 -3.73103,-7.57882 -4.34475,-10.21614 -4.27319,-18.36323 l 0.0836,-9.51343 -13.44948,-6.9303 c -7.39724,-3.81167 -31.92217,-16.31876 -54.49988,-27.79353 l -41.050372,-20.86323 -4.28296,4.14055 c -2.355628,2.27729 -7.794212,5.74505 -12.085741,7.70612 -6.945318,3.17376 -8.996632,3.50002 -18.666666,2.96906 C 26.862422,173.69469 19.976421,170.72657 12.02701,162.53525 3.4600431,153.70757 0.66666665,146.52716 0.66666665,133.33333 c 0,-13.50956 2.92238435,-20.71186 12.14689935,-29.93637 14.563156,-14.563158 41.857973,-15.24788 56.519766,-1.41786 l 3.333333,3.14423 55.441405,-26.895001 55.44142,-26.894997 -0.0755,-9.427552 c -0.0644,-8.041201 0.56519,-10.728946 4.28126,-18.277367 7.9266,-16.1012712 22.03441,-24.40810965 39.57805,-23.30402377 21.6038,1.35960617 37.64026,17.39713877 39.00636,39.00894277 1.10877,17.540911 -7.19819,31.65048 -23.30144,39.578086 -16.0098,7.8816 -32.87484,5.387096 -46.11965,-6.821546 L 190.9723,66.608786 136.48613,93.084599 C 90.480728,115.43947 82.069899,119.95781 82.449093,122.11354 c 0.247001,1.40422 0.47349,7.07289 0.503308,12.59704 l 0.05421,10.04392 54.256529,27.60067 54.25654,27.60067 4.55684,-4.70146 c 2.50625,-2.5858 7.76915,-6.2731 11.69534,-8.19401 20.96525,-10.25735 47.8338,0.94827 56.34896,23.50049 7.34011,19.44013 -1.68915,41.92809 -20.78749,51.77263 -9.19604,4.74024 -23.85028,5.47276 -33.43424,1.67125 z m 24.34744,-16.08957 c 17.57494,-6.64027 20.44217,-32.83623 4.72713,-43.18864 -9.89337,-6.51733 -21.39648,-5.70455 -30.33481,2.14341 -16.59276,14.56864 -6.42382,42.19661 15.60768,42.40445 3.4356,0.0324 7.9356,-0.57924 10,-1.35922 z M 53.333332,155.30236 c 7.270714,-3.74222 13.333333,-13.73144 13.333333,-21.96903 0,-5.15611 -3.247228,-13.02107 -7.063637,-17.10849 -10.797533,-11.56429 -31.004199,-9.21367 -39.067105,4.54464 -12.3958171,21.15186 10.978462,45.76298 32.797409,34.53288 z M 238.85081,62.036402 c 12.16889,-8.052994 14.17229,-26.389896 4.06436,-37.200617 -10.39982,-11.122895 -29.94232,-9.660751 -38.18864,2.857221 -8.64337,13.120697 -3.82646,29.804494 10.55164,36.546495 7.04397,3.302973 16.60229,2.409652 23.57264,-2.203099 z"
       id="path32"
       inkscape:connector-curvature="0" />
    <path
       style="fill:#bdc2c5;stroke-width:1.33333325"
       d="m 215.33333,265.50493 c -11.44842,-2.99476 -22.22771,-11.5336 -27.49885,-21.78326 -2.08106,-4.04658 -3.17067,-9.15654 -3.72183,-17.45428 l -0.77932,-11.73258 -54.15209,-27.52644 -54.152087,-27.52644 -5.742115,4.91503 C 48.2223,182.4276 15.007836,175.29912 3.8838123,150.36014 -0.46151106,140.61836 -0.51503349,126.04734 3.760049,116.66666 14.918613,92.181775 45.927374,84.396277 67.30301,100.71267 l 5.834239,4.45337 55.279871,-26.825458 55.27988,-26.825461 0.57933,-11.424227 c 0.8776,-17.305559 7.60503,-27.84969 22.76824,-35.68543 5.79528,-2.9947702 8.7346,-3.60634211 17.62209,-3.66654386 9.05373,-0.0613279 11.80793,0.48819746 18.21405,3.63412256 8.69871,4.2717622 16.18859,11.9608193 20.25836,20.7970833 4.32966,9.400494 3.9283,25.151375 -0.87788,34.451973 -4.32025,8.360283 -10.99809,15.296878 -18.62994,19.351832 -4.68703,2.490312 -7.75515,2.994855 -18.29792,3.009032 -14.3248,0.01927 -20.61559,-2.304108 -29.53921,-10.909691 l -4.87255,-4.698888 -54.46079,26.365963 c -29.95343,14.501283 -54.488438,26.417043 -54.522239,26.479473 -0.0338,0.0624 0.170725,5.86397 0.454501,12.8923 l 0.515959,12.7788 54.096199,27.61289 54.09618,27.61288 4.78264,-4.61109 c 8.83261,-8.51582 15.16039,-10.84112 29.44931,-10.8219 10.54277,0.0141 13.61089,0.51872 18.29792,3.00903 7.63185,4.05496 14.30969,10.99155 18.62994,19.35184 4.80618,9.30058 5.20754,25.05146 0.87788,34.45196 -6.59776,14.32501 -20.20714,23.7645 -35.46525,24.59874 -4.58727,0.2508 -10.14049,-0.0148 -12.34049,-0.59034 z m 22.39921,-19.29619 c 17.10956,-9.36841 15.43007,-35.79271 -2.78711,-43.85103 -15.46362,-6.8403 -33.01688,3.37379 -34.62889,20.15026 -1.18462,12.32866 7.14023,23.92444 19.10251,26.60805 6.57821,1.47576 11.83193,0.64173 18.31349,-2.90728 z M 48.291925,157.27465 C 58.335372,154.48532 66.6081,143.67192 66.6081,133.33333 c 0,-10.59121 -8.350243,-21.23784 -18.881029,-24.07349 -20.442005,-5.50446 -37.683789,16.55671 -27.911103,35.71276 5.47643,10.73469 16.684662,15.57682 28.475957,12.30205 z M 235.48811,64.115844 c 13.58352,-6.168527 18.29242,-23.131377 10.09592,-36.368493 -9.73698,-15.724965 -35.25813,-13.690069 -43.03321,3.431198 -9.68573,21.328628 11.60867,42.62302 32.93729,32.937295 z"
       id="path30"
       inkscape:connector-curvature="0" />
    <path
       style="fill:#b8bdc1;stroke-width:1.33333325"
       d="m 212.42857,264.27827 c -9.26079,-3.31372 -15.60415,-7.81084 -20.40221,-14.46412 -5.77463,-8.00741 -7.02687,-11.84658 -7.9061,-24.23897 l -0.78693,-11.09148 -54.04317,-27.50221 -54.043165,-27.50223 -7.071679,5.58984 c -21.968806,17.36535 -52.969002,9.89602 -64.6312962,-15.57257 -3.91837346,-8.55709 -3.91837346,-23.76931 0,-32.32641 C 14.889346,92.393752 45.689215,84.34763 66.973976,100.59975 l 6.102336,4.65948 55.332798,-26.818948 55.33279,-26.818949 0.47598,-10.810667 c 0.54933,-12.476893 3.68368,-20.221123 11.39974,-28.166106 15.98977,-16.4641442 44.44713,-16.036136 59.74667,0.898609 7.5438,8.350093 10.47436,16.061677 10.56081,27.790163 0.0877,11.907331 -3.84015,21.657652 -11.94236,29.644636 -8.55355,8.431891 -15.46647,11.025557 -29.31608,10.999146 -13.47412,-0.02569 -19.08483,-2.14578 -28.72322,-10.853502 l -5.26974,-4.760888 -54.38501,26.35873 -54.385008,26.358726 0.30866,12.79324 0.308659,12.79324 54.176039,27.72858 54.17604,27.72858 5.17004,-4.67082 c 9.53491,-8.61423 15.18223,-10.73782 28.62354,-10.76346 13.84961,-0.0264 20.76253,2.56726 29.31608,10.99915 8.10221,7.98698 12.03013,17.7373 11.94236,29.64464 -0.0864,11.72849 -3.01701,19.44006 -10.56081,27.79016 -10.29104,11.39094 -28.82146,16.20518 -42.93572,11.15478 z m 25.36884,-18.04436 c 13.724,-7.682 16.21613,-28.56885 4.6626,-39.07796 -8.33224,-7.57901 -18.82095,-9.15549 -28.7937,-4.32776 -11.75072,5.68843 -17.07525,21.26264 -11.20393,32.77139 3.23148,6.33421 9.61115,12.07929 14.64037,13.18409 1.96015,0.4306 4.16391,1.0022 4.89724,1.27022 2.63492,0.963 10.76452,-1.00282 15.79742,-3.81998 z M 51.333332,156.13885 c 9.846354,-4.55872 15.333333,-12.71959 15.333333,-22.80552 0,-10.08593 -5.486979,-18.2468 -15.333333,-22.80552 -9.512028,-4.40392 -19.400607,-2.46054 -27.208353,5.34721 -12.252546,12.25254 -8.850855,32.20047 6.81331,39.95406 7.008287,3.46902 13.362905,3.56554 20.395043,0.30977 z M 235.06621,64.510701 c 9.87342,-4.988554 14.59294,-12.203353 14.7423,-22.536811 0.32014,-22.146988 -27.95518,-33.9252837 -42.65256,-17.767243 -8.24038,9.059348 -9.36905,21.636495 -2.82856,31.519846 6.34474,9.587527 20.9105,13.749973 30.73882,8.784208 z"
       id="path28"
       inkscape:connector-curvature="0" />
    <path
       style="fill:#a9afb4;stroke-width:1.33333325"
       d="m 215.64595,265.29395 c -8.20421,-2.06038 -14.74792,-6.02149 -20.80757,-12.59542 -7.62442,-8.27154 -9.84718,-13.89098 -10.74877,-27.17435 l -0.75628,-11.14248 -54.36673,-27.65012 -54.366737,-27.65012 -4.569205,4.30931 c -8.104496,7.64353 -15.96187,10.61185 -28.030659,10.58929 -12.403908,-0.0232 -19.776318,-2.77345 -28.45683,-10.61577 -17.3004329,-15.62991 -17.3004329,-44.43201 0,-60.06191 14.980066,-13.533593 35.855298,-14.818426 52.404848,-3.22543 l 7.376245,5.16708 L 128.66213,78.413405 184,51.582783 v -8.887207 c 0,-12.090295 3.00888,-20.062897 10.78132,-28.567184 8.76307,-9.5882066 17.28249,-13.30002201 30.55201,-13.31117523 16.95446,-0.0142504 29.74265,8.28316923 37.50509,24.33461623 2.27881,4.712196 2.99093,8.558438 2.99599,16.181499 0.009,13.280475 -3.69376,21.77598 -13.3281,30.581214 -9.2561,8.459567 -17.49554,11.299861 -30.34504,10.460535 -10.73953,-0.701504 -17.98961,-3.817756 -26.25491,-11.284973 l -5.30683,-4.794392 -54.34961,26.330986 -54.349609,26.330988 0.288526,12.85449 0.288526,12.85448 54.163557,27.75956 54.16356,27.75956 5.20434,-4.70181 c 8.16293,-7.37471 15.44992,-10.49331 26.15245,-11.19239 12.8495,-0.83933 21.08894,2.00096 30.34504,10.46054 9.63434,8.80522 13.3369,17.30073 13.3281,30.58121 -0.008,11.35516 -2.78579,18.62504 -10.61187,27.76804 -8.48801,9.91634 -26.52005,15.47157 -39.57659,12.19258 z m 20.90702,-17.99604 c 9.95689,-4.72485 15.81745,-17.60018 12.88853,-28.31542 -1.85411,-6.78312 -7.74369,-13.87299 -13.98447,-16.83443 -14.418,-6.84178 -32.94886,3.20101 -35.06869,19.00547 -1.11941,8.34584 0.59536,14.11448 5.98081,20.1199 8.25227,9.2023 18.97639,11.34276 30.18382,6.02448 z M 55.250015,154.5365 c 7.773662,-5.3266 10.749983,-11.19706 10.749983,-21.20317 0,-9.95674 -2.97619,-15.87649 -10.61275,-21.10914 -13.292054,-9.10786 -33.629447,-1.57103 -37.973744,14.07269 -1.739136,6.2626 -1.741502,7.8019 -0.02149,13.99505 4.347856,15.65512 24.650729,23.29435 37.858007,14.24457 z M 239.31649,62.103241 c 13.13272,-10.01682 14.612,-26.84141 3.35017,-38.103242 -11.30073,-11.300732 -28.08508,-9.784313 -38.17889,3.449359 -3.32074,4.353713 -3.82111,6.170956 -3.82111,13.877557 0,7.376058 0.59848,9.772201 3.55769,14.243872 7.55787,11.420695 24.53896,14.581753 35.09214,6.532454 z"
       id="path26"
       inkscape:connector-curvature="0" />
    <path
       style="fill:#9ba2a8;stroke-width:1.33333325"
       d="m 215.33333,264.86475 c -3.66667,-0.93648 -8.06975,-2.46366 -9.78463,-3.39377 -6.04178,-3.27685 -13.79516,-11.37705 -17.28008,-18.05304 -2.95389,-5.65871 -3.53052,-8.50879 -3.56309,-17.61139 l -0.0389,-10.8601 -55.20049,-28.21471 -55.2005,-28.21472 -4.799502,4.6757 C 47.023719,185.05618 9.5018608,173.39028 1.7931753,142.15253 c -2.01291775,-8.15691 -2.01291775,-9.48149 0,-17.6384 C 8.2217837,98.463615 34.045688,85.535466 58.574907,96.087652 c 3.572829,1.53699 7.859675,4.246038 9.526325,6.020098 1.666649,1.77407 3.603821,3.22558 4.304828,3.22558 1.395986,0 108.93355,-51.829807 110.65835,-53.333931 0.58543,-0.510527 1.21517,-5.669243 1.39941,-11.463815 0.40994,-12.89197 4.36196,-21.514896 13.57904,-29.628093 19.18763,-16.8896285 50.40095,-11.79511163 62.36033,10.178211 6.76164,12.423348 7.29635,27.781763 1.3692,39.327279 -3.31146,6.450421 -11.33228,14.318612 -18.35445,18.005222 -5.75745,3.022631 -8.41961,3.547138 -18.08461,3.56309 -13.12396,0.02167 -21.05551,-3.036808 -29.32769,-11.308984 l -4.86659,-4.866592 -54.62019,26.506007 -54.620186,26.506006 0.05067,13.0686 0.05067,13.0686 54.666666,27.73348 54.66667,27.73346 4.93593,-4.72765 c 8.53633,-8.1761 16.07156,-11.03029 29.06407,-11.00885 9.665,0.016 12.32716,0.54045 18.08461,3.56309 7.02217,3.6866 15.04299,11.5548 18.35445,18.00521 3.5202,6.85703 5.0634,17.82387 3.5965,25.55882 -1.6631,8.76948 -7.2263,19.26326 -12.64083,23.84425 -10.06907,8.51895 -25.35513,12.28297 -37.39473,9.20801 z m 17.30326,-15.68526 c 9.86424,-2.73854 18.06522,-14.21479 17.99335,-25.1795 -0.0528,-8.05164 -8.40856,-19.56873 -16.38341,-22.58184 -8.81714,-3.33134 -22.01804,-0.42662 -27.75242,6.10663 -6.11752,6.96977 -8.26579,18.27913 -5.07596,26.72175 2.01619,5.33628 7.70752,11.01826 13.91518,13.89232 6.1783,2.86045 9.93453,3.08636 17.30326,1.04064 z M 53.063588,155.80785 c 18.167946,-8.79495 18.167946,-36.15409 0,-44.94904 -20.808114,-10.07303 -43.7448989,10.56954 -34.999951,31.49915 5.874956,14.06074 21.407778,20.02974 34.999951,13.44989 z M 235.06365,64.865273 c 5.49102,-2.294299 12.18866,-9.893078 14.26493,-16.184226 6.01761,-18.233548 -13.10943,-37.360581 -31.34297,-31.342967 -6.29115,2.076265 -13.88992,8.773903 -16.18423,14.26493 -3.7956,9.08415 -1.08681,22.602741 5.7234,28.563443 7.28044,6.372279 18.82099,8.341384 27.53887,4.69882 z"
       id="path24"
       inkscape:connector-curvature="0" />
    <path
       style="fill:#949ca2;stroke-width:1.33333325"
       d="m 218.56059,265.24871 c -12.9083,-2.03504 -24.36977,-10.52082 -30.17381,-22.33992 -3.03056,-6.17126 -3.75358,-9.51872 -3.90066,-18.05904 l -0.18054,-10.48358 -54.89702,-27.93483 -54.897017,-27.93484 -5.425898,4.90198 c -8.375996,7.56721 -16.044045,10.46616 -27.752313,10.49193 -8.840001,0.0195 -10.973709,-0.50087 -18.394058,-4.48567 -14.18991,-7.6201 -21.8412348,-20.25648 -21.8412348,-36.07141 0,-15.82832 7.9630778,-28.99074 21.6883278,-35.84933 17.114947,-8.552438 30.688484,-6.571814 48.664023,7.10096 1.129258,0.85895 19.147397,-7.234268 57.43089,-25.796267 l 55.78538,-27.0479 v -10.20373 c 0,-8.4679 0.63286,-11.492449 3.72012,-17.779201 12.17676,-24.7962082 44.94143,-30.5473228 64.72324,-11.360738 6.26529,6.076768 10.01388,12.386367 11.53017,19.407535 4.12474,19.09942 -4.7846,38.153102 -21.7314,46.475226 -6.39396,3.139906 -9.23909,3.716513 -18.24213,3.697034 -12.28364,-0.02657 -19.02648,-2.764788 -28,-11.370562 l -5.33333,-5.114765 -55.47951,26.876144 -55.479491,26.876144 1.301436,4.71139 c 0.715789,2.59127 1.007164,8.38033 0.647498,12.86459 l -0.653938,8.15319 53.904525,27.51348 c 29.64748,15.1324 54.65963,27.51346 55.58255,27.51346 0.9229,0 3.44028,-1.85594 5.59414,-4.12433 2.15387,-2.26837 6.91612,-5.70677 10.58279,-7.64088 5.57572,-2.9411 8.41218,-3.52078 17.33333,-3.54234 9.00636,-0.0217 11.84581,0.55328 18.24213,3.69434 16.9468,8.32212 25.85614,27.3758 21.7314,46.47521 -1.59505,7.38586 -5.35998,13.53252 -12.21821,19.94759 -9.48729,8.87427 -21.09288,12.45215 -33.86139,10.43913 z m 16.8279,-17.08826 c 24.55084,-11.15191 17.05685,-48.16046 -9.75218,-48.16046 -15.86961,0 -25.63632,9.6552 -25.63632,25.34363 0,18.70451 18.36876,30.54781 35.3885,22.81683 z M 52.821449,156.11584 c 3.018464,-1.37074 7.218464,-4.76086 9.333333,-7.53359 3.464214,-4.54183 3.845216,-6.05276 3.845216,-15.24892 0,-9.19616 -0.381002,-10.7071 -3.845216,-15.24892 -8.973286,-11.76458 -26.779976,-13.51375 -37.322915,-3.66626 -8.34661,7.79605 -10.797939,19.12362 -6.28765,29.05521 6.159118,13.56229 20.557525,18.87285 34.277232,12.64248 z M 238.10014,63.345129 c 23.51527,-13.78086 10.51992,-50.533889 -16.55584,-46.822743 -12.80372,1.754946 -21.54431,11.764053 -21.54431,24.671029 0,8.117224 1.728,12.955106 6.41816,17.968962 7.71995,8.252739 21.60831,10.086323 31.68199,4.182752 z"
       id="path22"
       inkscape:connector-curvature="0" />
  </g>
</svg>
