<?xml version="1.0" encoding="UTF-8" standalone="no"?>
<!-- Created with Inkscape (http://www.inkscape.org/) -->

<svg
   xmlns:dc="http://purl.org/dc/elements/1.1/"
   xmlns:cc="http://creativecommons.org/ns#"
   xmlns:rdf="http://www.w3.org/1999/02/22-rdf-syntax-ns#"
   xmlns:svg="http://www.w3.org/2000/svg"
   xmlns="http://www.w3.org/2000/svg"
   xmlns:sodipodi="http://sodipodi.sourceforge.net/DTD/sodipodi-0.dtd"
   xmlns:inkscape="http://www.inkscape.org/namespaces/inkscape"
   version="1.1"
   id="svg36"
   width="266.66666"
   height="233.33333"
   viewBox="0 0 266.66666 233.33333"
   sodipodi:docname="speach.svg"
   inkscape:version="0.92.1 r15371">
  <metadata
     id="metadata42">
    <rdf:RDF>
      <cc:Work
         rdf:about="">
        <dc:format>image/svg+xml</dc:format>
        <dc:type
           rdf:resource="http://purl.org/dc/dcmitype/StillImage" />
        <dc:title></dc:title>
      </cc:Work>
    </rdf:RDF>
  </metadata>
  <defs
     id="defs40" />
  <sodipodi:namedview
     pagecolor="#ffffff"
     bordercolor="#666666"
     borderopacity="1"
     objecttolerance="10"
     gridtolerance="10"
     guidetolerance="10"
     inkscape:pageopacity="0"
     inkscape:pageshadow="2"
     inkscape:window-width="1600"
     inkscape:window-height="838"
     id="namedview38"
     showgrid="false"
     inkscape:zoom="1.0114286"
     inkscape:cx="133.33333"
     inkscape:cy="116.66666"
     inkscape:window-x="-8"
     inkscape:window-y="-8"
     inkscape:window-maximized="1"
     inkscape:current-layer="svg36" />
  <g
     id="g46"
     transform="translate(0.98870379)">
    <path
       style="fill:#e6e8e9;stroke-width:1.33333325"
       d="m 51.408937,230.36998 c -1.67129,-2.38609 -2.075605,-7.17229 -2.075605,-24.5706 V 184.19212 L 29.227501,183.76273 9.1216695,183.33333 4.5608348,178.35292 0,173.37249 V 92.620032 C 0,4.0244709 -0.19434694,6.2374614 7.9563558,2.0225692 13.796952,-0.99772012 253.41143,-0.93604237 258.98323,2.0871845 c 7.8477,4.2581107 7.68343,2.3226297 7.68343,90.5328475 v 80.752458 l -4.56352,4.98043 -4.56352,4.98041 -72.25453,0.36712 -72.25453,0.36711 -25.457904,24.63289 c -22.361183,21.63652 -25.982795,24.63288 -29.773008,24.63288 -2.947617,0 -4.97288,-0.93911 -6.390711,-2.96335 z M 177.01668,166.66666 h 72.31665 V 91.999999 17.333333 h -116 -115.999997 v 74.666666 74.666661 h 24.666666 24.666666 v 18.98276 18.98275 L 85.683346,185.64942 104.70003,166.66666 Z M 55.087161,133.32402 c -6.171322,-2.48648 -7.353104,-9.17929 -2.481102,-14.0513 L 55.878787,116 h 51.331203 c 36.38921,0 52.32906,0.45466 54.75923,1.56192 6.19176,2.82115 6.19176,12.72167 0,15.54283 -4.12141,1.87783 -102.265839,2.07919 -106.882059,0.21927 z m 0,-33.31681 C 48.614633,97.362668 47.867995,88.5619 53.787132,84.683532 c 2.657743,-1.74142 13.58884,-2.016867 80.039438,-2.016867 h 76.9613 l 3.27272,3.272727 c 3.93292,3.932908 4.14683,7.352161 0.72443,11.579561 l -2.54832,3.147717 -77.11834,0.26533 c -42.864416,0.14748 -78.412167,-0.26329 -80.031199,-0.92479 z m 0,-33.333335 c -6.472528,-2.64454 -7.219166,-11.445308 -1.300029,-15.323676 2.657743,-1.74142 13.58884,-2.016866 80.039438,-2.016866 h 76.9613 l 3.27272,3.272726 c 3.93292,3.932908 4.14683,7.352161 0.72443,11.579561 l -2.54832,3.147712 -77.11834,0.265334 C 92.253944,67.746146 56.706193,67.335378 55.087161,66.673875 Z"
       id="path60"
       inkscape:connector-curvature="0" />
    <path
       style="fill:#d7d9dc;stroke-width:1.33333325"
       d="M 51.999999,230.66666 C 49.54882,228.21549 49.333332,226.22222 49.333332,206 V 184 L 30.999999,183.995 C 15.169072,183.9907 12.084024,183.63477 8.3980645,181.3873 -0.27827909,176.09704 0,179.10617 0,90.576016 V 10.352941 L 5.1764704,5.1764705 10.352941,0 H 133.33333 256.31371 l 5.17648,5.1764705 5.17647,5.1764705 -0.005,80.490195 c -0.005,77.479544 -0.1024,80.649864 -2.60771,84.758794 C 258.80898,184.20401 260.78213,184 182.82858,184 H 112.1914 l -25.276088,24.66666 c -26.885027,26.23682 -29.212175,27.70314 -34.915313,22 z m 125.338361,-64 h 71.99497 V 91.999999 17.333333 h -116 -115.999997 v 74.666666 74.666661 h 24.666666 24.666666 v 18.84332 18.84334 l 19.338357,-18.84334 19.338358,-18.84332 z m -124.343877,-35 c -3.620739,-2.76578 -4.161662,-8.08641 -1.194664,-11.75097 l 2.63057,-3.24903 h 53.310961 c 50.55338,0 53.45618,0.13139 56.11814,2.53999 3.45528,3.1264 3.63591,8.96339 0.36885,11.92003 -2.18329,1.97586 -8.01368,2.20665 -55.74516,2.20665 -40.592919,0 -53.82722,-0.39751 -55.488697,-1.66667 z m 0,-33.333328 c -3.620915,-2.76592 -4.161676,-8.086455 -1.19433,-11.750971 l 2.630904,-3.249029 h 78.902273 78.90228 l 2.63089,3.249029 c 2.96735,3.664516 2.42659,8.985051 -1.19432,11.750971 -1.6882,1.289564 -19.86581,1.666667 -80.33885,1.666667 -60.47304,0 -78.650658,-0.377103 -80.338847,-1.666667 z M 53.148817,65.309816 C 49.807096,63.358248 48.873672,57.566789 51.303231,53.858814 l 2.091576,-3.192148 h 79.938523 79.93852 l 2.09158,3.192148 c 2.50587,3.824436 1.4522,9.610841 -2.09582,11.509689 -3.24194,1.735029 -157.143955,1.678623 -160.118793,-0.05869 z"
       id="path58"
       inkscape:connector-curvature="0" />
    <path
       style="fill:#c4c8cb;stroke-width:1.33333325"
       d="m 53.866271,232.31292 c -3.70928,-2.47676 -4.532939,-7.4843 -4.532939,-27.5586 V 184 H 31.957174 C 12.02951,184 6.8518952,182.54026 2.6836983,175.7469 0.02961739,171.42125 -0.017445,169.72028 0.32116962,90.358361 L 0.66666665,9.3833905 5.0256409,5.0250286 9.3846151,0.66666666 H 133.33333 257.28205 l 4.35897,4.35836194 4.35897,4.3583619 0.3455,80.9749705 c 0.33861,79.361919 0.29156,81.062889 -2.36252,85.388539 -5.09394,8.30212 -4.60546,8.2531 -82.22883,8.2531 h -70.33151 l -24.791141,24.66666 c -24.682116,24.55819 -27.910326,26.88795 -32.765218,23.64626 z m 50.916679,-64.50108 c 0.38927,-0.62986 33.07235,-1.14518 72.62907,-1.14518 h 71.92131 V 91.333332 16 h -116 -115.999997 v 75.333332 75.333328 h 24.666666 24.666666 v 18.8193 18.8193 L 85.370933,186.63113 C 95.65828,176.91036 104.39369,168.44168 104.78295,167.81184 Z M 52.761904,131.23809 c -1.152381,-1.15238 -2.095239,-3.80952 -2.095239,-5.90476 0,-8.15028 -1.08742,-8 57.888585,-8 50.32853,0 53.83659,0.15301 55.90476,2.43832 2.76571,3.05608 2.81165,6.77125 0.13107,10.59834 l -2.07563,2.96334 H 108.6863 c -47.157822,0 -54.088832,-0.25967 -55.924396,-2.09524 z m 0,-33.33333 c -1.152381,-1.15238 -2.095239,-3.809523 -2.095239,-5.904761 0,-8.34731 -3.588869,-8 82.666665,-8 86.25553,0 82.66666,-0.34731 82.66666,8 0,8.347311 3.58887,8 -82.66666,8 -69.564212,0 -78.71413,-0.237942 -80.571426,-2.095239 z m 0,-33.333333 c -1.152381,-1.15238 -2.095239,-3.809523 -2.095239,-5.904761 0,-8.347309 -3.588869,-8 82.666665,-8 86.25553,0 82.66666,-0.347309 82.66666,8 0,8.347309 3.58887,8 -82.66666,8 -69.564212,0 -78.71413,-0.237942 -80.571426,-2.095239 z"
       id="path56"
       inkscape:connector-curvature="0" />
    <path
       style="fill:#b9bec2;stroke-width:1.33333325"
       d="m 52.873316,230.89501 c -1.866536,-2.06249 -2.206651,-5.84556 -2.206651,-24.54437 V 184.24457 L 30.999999,183.78896 C 14.164541,183.39892 10.779293,182.95818 7.4847573,180.72746 -0.05781951,175.62038 0,176.31113 0,91.309944 0,5.1128294 -0.26331247,7.8938384 8.3980645,2.6126873 12.548692,0.08190145 16.001621,0.00996816 133.33333,0.00996816 c 117.3317,0 120.78464,0.07193329 124.93526,2.60271914 8.66899,5.2857887 8.40348,2.4548557 8.34588,88.9877647 -0.0567,85.080808 0.0272,84.075718 -7.43664,89.129678 -3.67758,2.49017 -6.97062,2.61961 -75.8445,2.9812 l -72,0.378 -24.746491,24.622 c -25.98463,25.85391 -28.747035,27.67159 -33.713523,22.18368 z m 39.768332,-50.79963 13.308322,-13.42872 h 72.36944 72.36945 L 250.34443,91.666665 249.99999,16.666666 H 133.33333 16.666666 l -0.344434,74.999999 -0.344435,74.999995 h 25.344434 25.344434 v 18.79083 18.79083 l 6.333333,-5.36211 c 3.483333,-2.94916 12.322076,-11.40504 19.64165,-18.79083 z M 52.873316,130.89501 c -2.914261,-3.22022 -2.804348,-8.60747 0.231671,-11.35503 2.183582,-1.97612 8.026137,-2.20665 55.924393,-2.20665 h 53.48607 l 2.07561,2.96334 c 2.79356,3.98838 2.61242,7.16651 -0.59106,10.36999 -2.57743,2.57744 -4.44444,2.66667 -55.79335,2.66667 -49.774946,0 -53.265901,-0.15383 -55.333334,-2.43832 z m 0,-33.333333 c -2.914261,-3.220221 -2.804348,-8.60747 0.231671,-11.355028 2.210408,-2.000392 9.731103,-2.20665 80.460013,-2.20665 73.89282,0 78.13847,0.12904 80.22834,2.438321 2.91427,3.220221 2.80435,8.607471 -0.23167,11.355028 -2.21041,2.000392 -9.7311,2.206651 -80.46001,2.206651 -73.892827,0 -78.138469,-0.129035 -80.228344,-2.438322 z m 0,-33.333333 c -2.914261,-3.220221 -2.804348,-8.60747 0.231671,-11.355027 2.210408,-2.000392 9.731103,-2.206651 80.460013,-2.206651 73.89282,0 78.13847,0.12904 80.22834,2.438321 2.91427,3.220222 2.80435,8.607471 -0.23167,11.355028 -2.21041,2.000392 -9.7311,2.206651 -80.46001,2.206651 -73.892827,0 -78.138469,-0.129035 -80.228344,-2.438322 z"
       id="path54"
       inkscape:connector-curvature="0" />
    <path
       style="fill:#aab1b6;stroke-width:1.33333325"
       d="m 53.630007,231.25773 c -2.862656,-2.00509 -2.963342,-2.83815 -2.963342,-24.5184 V 184.29654 L 31.666666,183.75361 C 10.112226,183.13769 5.7548999,181.72454 2.1797933,174.19056 0.23960251,170.10192 2.2775375e-4,161.04538 0.002072,91.798493 0.00438969,4.7746394 -0.24001162,7.1178271 9.3333331,2.3354053 13.671853,0.16807186 22.39119,0.004144 133.33333,0.004144 c 110.94214,0 119.66148,0.16392786 124,2.3312613 9.57334,4.7824218 9.32894,2.4392341 9.33126,89.4630877 0.003,86.086287 0.15202,84.516087 -8.51105,89.260237 -3.74185,2.04915 -11.22229,2.31316 -75.46914,2.66359 l -71.3156,0.38898 -24.828769,24.61102 c -14.882722,14.7522 -25.853853,24.61101 -27.387727,24.61101 -1.407425,0 -3.892459,-0.93403 -5.522297,-2.0756 z M 178.34948,166.66666 h 72.31718 V 91.333332 16 H 133.33333 16 v 75.303912 75.303908 l 24.999999,0.36275 24.999999,0.36276 0.37164,19.27841 0.371642,19.27843 19.644501,-19.61176 19.644499,-19.61175 z M 52.873316,130.89501 c -2.914261,-3.22022 -2.804348,-8.60747 0.231671,-11.35503 2.18263,-1.97525 7.985065,-2.20665 55.333333,-2.20665 51.11724,0 52.98464,0.0896 55.56168,2.66667 3.39501,3.395 3.39501,7.27166 0,10.66666 -2.57743,2.57744 -4.44444,2.66667 -55.79335,2.66667 -49.774946,0 -53.265901,-0.15383 -55.333334,-2.43832 z m 0,-33.333333 c -2.914261,-3.220221 -2.804348,-8.60747 0.231671,-11.355028 2.210408,-2.000392 9.731103,-2.20665 80.460013,-2.20665 73.89282,0 78.13847,0.12904 80.22834,2.438321 2.91427,3.220221 2.80435,8.607471 -0.23167,11.355028 -2.21041,2.000392 -9.7311,2.206651 -80.46001,2.206651 -73.892827,0 -78.138469,-0.129035 -80.228344,-2.438322 z m 0,-33.333333 c -2.914261,-3.220221 -2.804348,-8.60747 0.231671,-11.355027 2.210408,-2.000392 9.731103,-2.206651 80.460013,-2.206651 73.89282,0 78.13847,0.12904 80.22834,2.438321 2.91427,3.220222 2.80435,8.607471 -0.23167,11.355028 -2.21041,2.000392 -9.7311,2.206651 -80.46001,2.206651 -73.892827,0 -78.138469,-0.129035 -80.228344,-2.438322 z"
       id="path52"
       inkscape:connector-curvature="0" />
    <path
       style="fill:#9ba3a8;stroke-width:1.33333325"
       d="m 53.486165,231 c -2.627982,-2.18278 -2.831097,-3.79596 -3.147712,-25 l -0.338454,-22.66667 -20.231177,-0.66667 c -19.157974,-0.6313 -20.4146098,-0.83925 -23.6890906,-3.92014 -1.9018519,-1.78943 -4.0816124,-5.38943 -4.8439121,-8 -0.91027656,-3.11735 -1.2458145,-31.29 -0.97757611,-82.079855 C 0.63857405,16.652554 0.83253101,11.08903 3.0780807,7.7815367 8.5866689,-0.33211922 3.0273206,0 133.33333,0 c 130.30601,0 124.74666,-0.33211922 130.25525,7.7815367 2.24555,3.3074933 2.43951,8.8710173 2.81984,80.8851283 0.27655,52.364775 -0.0541,78.915955 -1.02408,82.235065 -0.78788,2.69596 -3.26771,6.44596 -5.51073,8.33333 l -4.07822,3.4316 H 184.19974 112.6041 l -10.63538,10.78951 c -17.769401,18.02689 -41.752951,39.87716 -43.770452,39.87716 -1.046565,0 -3.167011,-1.05 -4.712103,-2.33333 z M 177.33834,167.6783 249.99999,167.33333 250.34434,91.666665 250.68867,16 H 133.33333 15.977981 l 0.344343,75.666665 0.344342,75.666665 25,0.36276 24.999999,0.36275 v 18.95333 18.95333 L 85.671683,186.9944 104.6767,168.02328 Z M 53.630007,131.25773 c -1.898474,-1.32975 -2.963342,-3.45866 -2.963342,-5.9244 0,-7.92912 0.51421,-8 58.041835,-8 39.67246,0 52.62136,0.39792 54.23536,1.66667 3.63578,2.85804 4.00795,6.94454 0.98272,10.79049 l -2.7868,3.54284 h -52.27321 c -45.153392,0 -52.676841,-0.28271 -55.236563,-2.0756 z m 0,-33.333337 c -4.061054,-2.844473 -3.988506,-9.191206 0.135956,-11.893657 2.684929,-1.759233 13.341034,-2.030737 79.703327,-2.030737 84.4306,0 82.5307,-0.184164 82.5307,8 0,8.185171 1.91347,8 -82.66666,8 -67.297718,0 -77.104598,-0.255387 -79.703323,-2.075606 z m 0,-33.333333 c -4.061054,-2.844473 -3.988506,-9.191206 0.135956,-11.893657 2.684929,-1.759233 13.341034,-2.030737 79.703327,-2.030737 84.4306,0 82.5307,-0.184164 82.5307,8 0,8.185173 1.91347,8 -82.66666,8 -67.297718,0 -77.104598,-0.255387 -79.703323,-2.075606 z"
       id="path50"
       inkscape:connector-curvature="0" />
    <path
       style="fill:#949ca2;stroke-width:1.33333325"
       d="m 55.999999,232.40802 c -4.776083,-1.70693 -5.333334,-4.56244 -5.333334,-27.32953 V 182.66666 H 30.533333 10.4 l -4.4137019,-4.4137 C 2.8420594,175.10872 1.3257204,172.13666 0.71425086,167.91962 0.24216071,164.66384 0.03832648,128.29346 0.2612859,87.096569 0.65817244,13.762642 0.72452908,12.114288 3.4281131,8.4299041 4.9469085,6.3601235 8.2469085,3.617599 10.761446,2.3354053 15.012096,0.16794689 23.624442,0.004144 133.33333,0.004144 c 109.70889,0 118.32124,0.16380289 122.57189,2.3312613 2.51453,1.2821937 5.81453,4.0247182 7.33333,6.0944988 2.70358,3.6843839 2.76994,5.3327379 3.16683,78.6666649 0.22296,41.196891 0.0191,77.567271 -0.45297,80.823051 -0.61147,4.21704 -2.1278,7.1891 -5.27204,10.33334 l -4.41371,4.4137 H 184.3898 112.51293 L 86.312953,208 c -14.409985,13.93333 -26.675394,25.28596 -27.256464,25.22806 -0.58107,-0.0579 -1.95649,-0.4269 -3.05649,-0.82004 z M 86.046173,186.66666 104.87331,168 h 72.89667 72.89668 V 91.999999 16 H 133.33333 16 V 91.999999 168 h 24.666666 24.666666 v 18.66666 c 0,10.26667 0.424282,18.66667 0.94285,18.66667 0.518568,0 9.415064,-8.4 19.769991,-18.66667 z m -32.712841,-56 C 51.866665,129.2 50.666665,126.8 50.666665,125.33333 c 0,-1.46667 1.2,-3.86667 2.666667,-5.33333 2.576487,-2.57649 4.444444,-2.66667 55.236558,-2.66667 h 52.56989 l 2.63447,3.34919 c 3.0614,3.89193 2.47928,7.85507 -1.57044,10.6916 -2.34373,1.64162 -11.17833,1.95921 -54.50049,1.95921 -49.925544,0 -51.795012,-0.0917 -54.369988,-2.66667 z m 0,-33.333328 c -3.401416,-3.401416 -3.393792,-7.272875 0.02104,-10.687712 2.641844,-2.641844 4.020304,-2.681664 80.774508,-2.333333 75.54216,0.34283 78.14847,0.43872 79.97896,2.942552 2.62239,3.587024 2.36478,6.939198 -0.77452,10.078493 -2.60536,2.605364 -4.44444,2.666667 -80,2.666667 -75.555549,0 -77.394629,-0.06131 -79.999993,-2.666667 z m 0,-33.333333 c -3.401416,-3.401416 -3.393792,-7.272874 0.02104,-10.687712 2.641844,-2.641844 4.020304,-2.681664 80.774508,-2.333333 75.54216,0.342831 78.14847,0.43872 79.97896,2.942552 2.62239,3.587024 2.36478,6.939198 -0.77452,10.078493 -2.60536,2.605364 -4.44444,2.666667 -80,2.666667 -75.555549,0 -77.394629,-0.06131 -79.999993,-2.666667 z"
       id="path48"
       inkscape:connector-curvature="0" />
  </g>
</svg>
