<?xml version="1.0" encoding="UTF-8" standalone="no"?>
<!-- Created with Inkscape (http://www.inkscape.org/) -->

<svg
   xmlns:dc="http://purl.org/dc/elements/1.1/"
   xmlns:cc="http://creativecommons.org/ns#"
   xmlns:rdf="http://www.w3.org/1999/02/22-rdf-syntax-ns#"
   xmlns:svg="http://www.w3.org/2000/svg"
   xmlns="http://www.w3.org/2000/svg"
   xmlns:sodipodi="http://sodipodi.sourceforge.net/DTD/sodipodi-0.dtd"
   xmlns:inkscape="http://www.inkscape.org/namespaces/inkscape"
   version="1.1"
   id="svg3680"
   width="266.66666"
   height="233.33333"
   viewBox="0 0 266.66666 233.33333"
   sodipodi:docname="task.svg"
   inkscape:version="0.92.1 r15371">
  <metadata
     id="metadata3686">
    <rdf:RDF>
      <cc:Work
         rdf:about="">
        <dc:format>image/svg+xml</dc:format>
        <dc:type
           rdf:resource="http://purl.org/dc/dcmitype/StillImage" />
        <dc:title></dc:title>
      </cc:Work>
    </rdf:RDF>
  </metadata>
  <defs
     id="defs3684" />
  <sodipodi:namedview
     pagecolor="#ffffff"
     bordercolor="#666666"
     borderopacity="1"
     objecttolerance="10"
     gridtolerance="10"
     guidetolerance="10"
     inkscape:pageopacity="0"
     inkscape:pageshadow="2"
     inkscape:window-width="1600"
     inkscape:window-height="838"
     id="namedview3682"
     showgrid="false"
     inkscape:zoom="2.8757143"
     inkscape:cx="133.33333"
     inkscape:cy="116.66666"
     inkscape:window-x="-8"
     inkscape:window-y="-8"
     inkscape:window-maximized="1"
     inkscape:current-layer="svg3680" />
  <path
     style="fill:#000000;stroke-width:1.33333325"
     d="m 124.95678,231.12344 c -2.2,-1.15672 -30.273701,-17.08998 -62.386011,-35.40726 -38.10891,-21.73781 -59.1780648,-34.51296 -60.6666638,-36.78485 -2.933464,-4.47703 -2.924644,-13.39909 0.01769,-17.88965 1.309717,-1.99888 10.0560408,-7.91832 20.3333288,-13.76141 9.91925,-5.63953 18.03499,-10.41565 18.03499,-10.61361 0,-0.19795 -8.11574,-4.97407 -18.03499,-10.6136 C 11.977831,100.20997 3.2315072,94.290536 1.9217902,92.291657 -1.0205388,87.801096 -1.0293588,78.87903 1.9041052,74.401998 4.1677662,70.947214 115.66985,6.1241187 127.01308,1.6683714 c 4.77315,-1.87494842 5.78091,-1.87494842 10.55407,0 11.34323,4.4557473 122.8453,69.2788426 125.10897,72.7336266 2.93345,4.477032 2.92464,13.399098 -0.0177,17.889659 -1.30971,1.998879 -10.05604,7.918313 -20.33334,13.761403 -9.9192,5.63953 -18.03494,10.41565 -18.03494,10.6136 0,0.19796 8.11574,4.97408 18.03498,10.61361 10.2773,5.84309 19.02363,11.76253 20.33334,13.76141 2.94233,4.49056 2.95114,13.41262 0.0177,17.88965 -1.48607,2.26801 -22.67288,15.13479 -60.81021,36.93009 -32.19125,18.39716 -60.69568,34.35446 -63.34319,35.46064 -5.99033,2.50292 -8.4976,2.46622 -13.56594,-0.19862 z m 50.29865,-57.9608 c 21.83573,-12.48052 39.70134,-22.9027 39.70134,-23.16038 0,-0.54944 -23.34293,-14.00226 -24.2963,-14.00226 -0.35557,0 -12.23464,6.59162 -26.39792,14.64805 -14.16328,8.05643 -27.66953,15.00789 -30.01389,15.44769 -4.98871,0.9359 -7.73217,-0.34674 -38.425701,-17.96489 C 84.199359,141.45888 74.370559,136 73.981189,136 c -2.26968,0 -24.37665,13.83424 -23.46362,14.68321 3.95702,3.67944 81.469761,46.52343 83.071191,45.91632 1.08092,-0.40977 19.83092,-10.95637 41.66667,-23.43689 z m 0,-66.66667 c 21.83573,-12.480514 39.70134,-22.907867 39.70134,-23.171885 0,-0.264017 -18.59999,-11.098326 -41.33333,-24.076242 L 132.29011,35.651631 90.843479,59.31252 c -22.79564,13.013488 -40.94564,24.126963 -40.33333,24.696608 3.95817,3.682364 81.474971,46.531672 83.078611,45.923742 1.08092,-0.40978 19.83092,-10.95638 41.66667,-23.4369 z"
     id="path3690"
     inkscape:connector-curvature="0" />
</svg>
